# Blender 5.2.1 LTS
# www.blender.org
mtllib Bate.mtl
o mesh.000
v -0.831956 0.026480 -0.026480
v -0.729111 0.026480 -0.026480
v -0.729111 -0.000000 -0.039719
v -0.831956 -0.000000 -0.039719
v -0.729111 -0.026480 -0.026480
v -0.831956 -0.026480 -0.026480
v -0.831956 0.037828 0.000000
v -0.729111 0.037828 0.000000
v -0.214888 0.022697 -0.022697
v -0.214888 0.028370 0.000000
v -0.214888 -0.000000 0.000000
v -0.214888 -0.000000 -0.028370
v -0.214888 -0.028370 0.000000
v -0.214888 -0.022697 -0.022697
v -0.729111 -0.037828 0.000000
v -0.831956 -0.037828 0.000000
v -0.420578 -0.000000 -0.035937
v -0.523421 -0.000000 -0.039719
v -0.523421 0.026480 -0.026480
v -0.420578 0.025723 -0.025723
v -0.523421 0.037828 0.000000
v -0.420578 0.034045 0.000000
v -0.420578 -0.034045 0.000000
v -0.523421 -0.037828 0.000000
v -0.523421 -0.026480 -0.026480
v -0.420578 -0.025723 -0.025723
v -0.934801 0.026480 -0.026480
v -0.934801 0.037828 0.000000
v -0.934801 -0.000000 -0.039719
v -0.934801 -0.026480 -0.026480
v -0.934801 -0.037828 0.000000
v -0.317733 0.028370 0.000000
v -0.317733 0.022697 -0.022697
v -0.317733 -0.022697 -0.022697
v -0.317733 -0.028370 0.000000
v -0.317733 -0.000000 -0.028370
v -0.626268 0.037828 0.000000
v -0.626268 0.026480 -0.026480
v -0.626268 -0.000000 -0.039719
v -0.626268 -0.026480 -0.026480
v -0.626268 -0.037828 0.000000
v -1.037646 0.037828 0.000000
v -1.037646 0.026480 -0.026480
v -1.037646 -0.000000 -0.039719
v -1.037646 -0.026480 -0.026480
v -1.037646 -0.037828 0.000000
v -1.037646 -0.000000 0.000000
v -0.729111 -0.000000 0.039719
v -0.729111 0.026480 0.026480
v -0.831956 0.026480 0.026480
v -0.831956 -0.000000 0.039719
v -0.729111 -0.026480 0.026480
v -0.831956 -0.026480 0.026480
v -0.214888 0.022697 0.022697
v -0.214888 -0.000000 0.028370
v -0.214888 -0.022697 0.022697
v -0.523421 0.026480 0.026480
v -0.523421 -0.000000 0.039719
v -0.420578 -0.000000 0.035937
v -0.420578 0.025723 0.025723
v -0.523421 -0.026480 0.026480
v -0.420578 -0.025723 0.025723
v -0.934801 0.026480 0.026480
v -0.934801 -0.000000 0.039719
v -0.934801 -0.026480 0.026480
v -0.317733 0.022697 0.022697
v -0.317733 -0.022697 0.022697
v -0.317733 -0.000000 0.028370
v -0.626268 0.026480 0.026480
v -0.626268 -0.000000 0.039719
v -0.626268 -0.026480 0.026480
v -1.037646 0.026480 0.026480
v -1.037646 -0.000000 0.039719
v -1.037646 -0.026480 0.026480
v 0.153935 0.022696 -0.022697
v 0.153935 0.000000 -0.028370
v -0.214888 -0.000000 -0.028370
v -0.214888 0.022697 -0.022697
v -0.214888 -0.022697 -0.022697
v 0.153935 -0.022697 -0.022697
v -0.214888 0.028370 0.000000
v 0.153935 0.028370 -0.000000
v 0.153935 0.000000 -0.000000
v 0.153935 -0.028370 -0.000000
v -0.214888 -0.028370 0.000000
v -0.214888 -0.000000 0.000000
v -0.214888 0.022697 0.022697
v -0.214888 -0.000000 0.028370
v 0.153935 0.000000 0.028370
v 0.153935 0.022696 0.022697
v 0.153935 -0.022697 0.022697
v -0.214888 -0.022697 0.022697
v -1.037646 0.026480 -0.026480
v -1.037646 -0.000000 -0.039719
v -1.066018 -0.000000 -0.026480
v -1.066018 0.017022 -0.017022
v -1.066018 -0.017023 -0.017022
v -1.037646 -0.026480 -0.026480
v -1.066018 0.026480 0.000000
v -1.037646 0.037828 0.000000
v -1.037646 -0.000000 0.000000
v -1.037646 -0.037828 0.000000
v -1.066018 -0.026480 0.000000
v -1.066018 -0.000000 0.000000
v -1.066018 -0.000000 0.026480
v -1.037646 -0.000000 0.039719
v -1.037646 0.026480 0.026480
v -1.066018 0.017022 0.017022
v -1.066018 -0.017023 0.017022
v -1.037646 -0.026480 0.026480
vn -0.0000 0.4472 -0.8944
vn -0.0000 -0.4472 -0.8944
vn -0.0000 0.9192 -0.3939
vn 1.0000 -0.0000 -0.0000
vn -0.0000 -0.9192 -0.3939
vn 0.0386 0.4469 -0.8937
vn 0.0385 0.4468 -0.8938
vn 0.0385 0.4470 -0.8937
vn 0.0384 0.4468 -0.8938
vn 0.0035 0.9192 -0.3938
vn 0.0017 0.9191 -0.3940
vn 0.0018 0.9192 -0.3939
vn 0.0036 0.9191 -0.3940
vn 0.0397 -0.9184 -0.3936
vn 0.0398 -0.9185 -0.3934
vn 0.0396 -0.9184 -0.3937
vn 0.0397 -0.9185 -0.3935
vn 0.0040 -0.4472 -0.8944
vn 0.0019 -0.4473 -0.8944
vn 0.0020 -0.4473 -0.8944
vn 0.0041 -0.4472 -0.8944
vn 0.0576 0.9685 -0.2422
vn 0.0576 0.9685 -0.2421
vn 0.0578 0.9685 -0.2423
vn 0.0579 0.9685 -0.2422
vn 0.0313 -0.9697 -0.2424
vn 0.0313 -0.9696 -0.2425
vn 0.0309 -0.9697 -0.2425
vn 0.0310 -0.9696 -0.2425
vn 0.0793 -0.2420 -0.9670
vn 0.0795 -0.2416 -0.9671
vn 0.0798 -0.2421 -0.9670
vn 0.0804 -0.2418 -0.9670
vn 0.0270 0.2423 -0.9698
vn 0.0271 0.2427 -0.9697
vn 0.0262 0.2426 -0.9698
vn 0.0266 0.2429 -0.9697
vn -0.0000 -0.9702 -0.2425
vn -0.0000 -0.2425 -0.9702
vn -0.0000 0.2425 -0.9702
vn -0.0000 0.9702 -0.2425
vn -1.0000 -0.0000 -0.0000
vn -0.0000 0.4472 0.8944
vn -0.0000 -0.4472 0.8944
vn -0.0000 0.9192 0.3939
vn -0.0000 -0.9192 0.3939
vn 0.0385 0.4470 0.8937
vn 0.0385 0.4468 0.8938
vn 0.0386 0.4469 0.8937
vn 0.0384 0.4468 0.8938
vn 0.0018 0.9192 0.3939
vn 0.0017 0.9191 0.3940
vn 0.0035 0.9192 0.3938
vn 0.0036 0.9191 0.3940
vn 0.0396 -0.9184 0.3937
vn 0.0398 -0.9185 0.3934
vn 0.0397 -0.9184 0.3936
vn 0.0397 -0.9185 0.3935
vn 0.0020 -0.4473 0.8944
vn 0.0019 -0.4473 0.8944
vn 0.0040 -0.4472 0.8944
vn 0.0041 -0.4472 0.8944
vn 0.0578 0.9685 0.2423
vn 0.0576 0.9685 0.2421
vn 0.0576 0.9685 0.2422
vn 0.0579 0.9685 0.2422
vn 0.0309 -0.9697 0.2425
vn 0.0313 -0.9696 0.2425
vn 0.0313 -0.9697 0.2424
vn 0.0310 -0.9696 0.2425
vn 0.0798 -0.2420 0.9670
vn 0.0795 -0.2416 0.9671
vn 0.0793 -0.2420 0.9670
vn 0.0804 -0.2418 0.9670
vn 0.0263 0.2426 0.9698
vn 0.0271 0.2427 0.9697
vn 0.0271 0.2423 0.9698
vn 0.0266 0.2429 0.9697
vn -0.0000 -0.9702 0.2425
vn -0.0000 -0.2425 0.9702
vn -0.0000 0.2425 0.9702
vn -0.0000 0.9702 0.2425
vn -0.3824 0.4143 -0.8259
vn -0.3819 0.4149 -0.8258
vn -0.3815 0.4154 -0.8257
vn -0.3826 0.4140 -0.8259
vn -0.3720 -0.4481 -0.8129
vn -0.3735 -0.4494 -0.8115
vn -0.3732 -0.4492 -0.8118
vn -0.3725 -0.4485 -0.8125
vn -0.3149 0.8329 -0.4552
vn -0.3186 0.8298 -0.4583
vn -0.3179 0.8302 -0.4580
vn -0.3163 0.8318 -0.4562
vn -0.3370 -0.8643 -0.3733
vn -0.3356 -0.8642 -0.3747
vn -0.3351 -0.8640 -0.3757
vn -0.3377 -0.8645 -0.3722
vn -0.3815 0.4154 0.8257
vn -0.3819 0.4149 0.8258
vn -0.3824 0.4143 0.8259
vn -0.3826 0.4140 0.8259
vn -0.3732 -0.4492 0.8118
vn -0.3735 -0.4494 0.8115
vn -0.3720 -0.4481 0.8129
vn -0.3725 -0.4485 0.8125
vn -0.3179 0.8302 0.4580
vn -0.3186 0.8298 0.4583
vn -0.3149 0.8329 0.4552
vn -0.3163 0.8318 0.4562
vn -0.3351 -0.8640 0.3757
vn -0.3357 -0.8643 0.3746
vn -0.3370 -0.8643 0.3733
vn -0.3377 -0.8645 0.3722
vt 0.000000 0.984375
vt 0.000000 0.976562
vt 0.031250 0.976562
vt 0.031250 0.984375
vt 0.062500 0.976562
vt 0.062500 0.984375
vt 0.062500 1.000000
vt 0.031250 1.000000
vt 0.031250 0.968750
vt 0.062500 0.968750
vt 0.031250 0.937500
vt 0.062500 0.937500
vt 0.031250 0.953125
vt 0.031250 0.960938
vt 0.000000 0.960938
vt 0.000000 0.953125
vt 0.062500 0.953125
vt 0.062500 0.960938
vt 0.062500 0.992188
vt 0.031250 0.992188
vt 0.000000 0.992188
vt 0.031250 0.945312
vt 0.062500 0.945312
vt 0.000000 0.945312
vt 0.000000 0.937500
vt 0.000000 0.968750
vt 0.000000 1.000000
s 1
usemtl none
f 1/1/1 2/2/1 3/3/1 4/4/1
f 4/4/2 3/3/2 5/5/2 6/6/2
f 7/4/3 8/3/3 2/5/3 1/6/3
f 9/7/4 10/8/4 11/9/4 12/10/4
f 12/10/4 11/9/4 13/11/4 14/12/4
f 6/1/5 5/2/5 15/3/5 16/4/5
f 17/13/6 18/14/7 19/15/8 20/16/9
f 20/17/10 19/18/11 21/14/12 22/13/13
f 23/13/14 24/14/15 25/15/16 26/16/17
f 26/17/18 25/18/19 18/14/20 17/13/21
f 1/6/3 27/19/3 28/20/3 7/4/3
f 4/4/1 29/20/1 27/21/1 1/1/1
f 6/6/2 30/19/2 29/20/2 4/4/2
f 16/4/5 31/20/5 30/21/5 6/1/5
f 22/13/22 32/22/23 33/23/24 20/17/25
f 26/16/26 34/24/27 35/22/28 23/13/29
f 17/13/30 36/22/31 34/23/32 26/17/33
f 20/16/34 33/24/35 36/22/36 17/13/37
f 13/11/38 35/22/38 34/24/38 14/25/38
f 14/12/39 34/23/39 36/22/39 12/11/39
f 12/11/40 36/22/40 33/24/40 9/25/40
f 9/12/41 33/23/41 32/22/41 10/11/41
f 37/9/3 21/14/12 19/18/11 38/10/3
f 38/26/1 19/15/1 18/14/1 39/9/1
f 39/9/2 18/14/20 25/18/19 40/10/2
f 40/26/5 25/15/5 24/14/5 41/9/5
f 38/10/3 2/5/3 8/3/3 37/9/3
f 41/9/5 15/3/5 5/2/5 40/26/5
f 40/10/2 5/5/2 3/3/2 39/9/2
f 39/9/1 3/3/1 2/2/1 38/26/1
f 42/8/3 28/20/3 27/19/3 43/7/3
f 43/27/1 27/21/1 29/20/1 44/8/1
f 44/8/2 29/20/2 30/19/2 45/7/2
f 45/27/5 30/21/5 31/20/5 46/8/5
f 44/10/42 47/9/42 42/11/42 43/12/42
f 45/7/42 46/8/42 47/9/42 44/10/42
f 48/3/43 49/2/43 50/1/43 51/4/43
f 52/5/44 48/3/44 51/4/44 53/6/44
f 49/5/45 8/3/45 7/4/45 50/6/45
f 11/9/4 10/8/4 54/7/4 55/10/4
f 13/11/4 11/9/4 55/10/4 56/12/4
f 15/3/46 52/2/46 53/1/46 16/4/46
f 57/15/47 58/14/48 59/13/49 60/16/50
f 21/14/51 57/18/52 60/17/53 22/13/54
f 61/15/55 24/14/56 23/13/57 62/16/58
f 58/14/59 61/18/60 62/17/61 59/13/62
f 28/20/45 63/19/45 50/6/45 7/4/45
f 63/21/43 64/20/43 51/4/43 50/1/43
f 64/20/44 65/19/44 53/6/44 51/4/44
f 65/21/46 31/20/46 16/4/46 53/1/46
f 66/23/63 32/22/64 22/13/65 60/17/66
f 35/22/67 67/24/68 62/16/69 23/13/70
f 67/23/71 68/22/72 59/13/73 62/17/74
f 68/22/75 66/24/76 60/16/77 59/13/78
f 67/24/79 35/22/79 13/11/79 56/25/79
f 68/22/80 67/23/80 56/12/80 55/11/80
f 66/24/81 68/22/81 55/11/81 54/25/81
f 32/22/82 66/23/82 54/12/82 10/11/82
f 57/18/52 21/14/51 37/9/45 69/10/45
f 58/14/43 57/15/43 69/26/43 70/9/43
f 61/18/60 58/14/59 70/9/44 71/10/44
f 24/14/46 61/15/46 71/26/46 41/9/46
f 8/3/45 49/5/45 69/10/45 37/9/45
f 52/2/46 15/3/46 41/9/46 71/26/46
f 48/3/44 52/5/44 71/10/44 70/9/44
f 49/2/43 48/3/43 70/9/43 69/26/43
f 63/19/45 28/20/45 42/8/45 72/7/45
f 64/20/43 63/21/43 72/27/43 73/8/43
f 65/19/44 64/20/44 73/8/44 74/7/44
f 31/20/46 65/21/46 74/27/46 46/8/46
f 42/11/42 47/9/42 73/10/42 72/12/42
f 47/9/42 46/8/42 74/7/42 73/10/42
f 75/25/40 76/11/40 77/8/40 78/27/40
f 79/7/39 77/8/39 76/11/39 80/12/39
f 78/7/41 81/8/41 82/11/41 75/12/41
f 75/7/4 82/8/4 83/9/4 76/10/4
f 76/10/4 83/9/4 84/11/4 80/12/4
f 80/25/38 84/11/38 85/8/38 79/27/38
f 79/7/42 85/8/42 86/9/42 77/10/42
f 77/10/42 86/9/42 81/11/42 78/12/42
f 87/7/81 88/8/81 89/11/81 90/12/81
f 91/25/80 89/11/80 88/8/80 92/27/80
f 90/25/82 82/11/82 81/8/82 87/27/82
f 89/26/4 83/9/4 82/8/4 90/27/4
f 91/25/4 84/11/4 83/9/4 89/26/4
f 92/7/79 85/8/79 84/11/79 91/12/79
f 88/26/42 86/9/42 85/8/42 92/27/42
f 87/25/42 81/11/42 86/9/42 88/26/42
f 93/25/83 94/11/84 95/8/85 96/27/86
f 97/7/87 95/8/88 94/11/89 98/12/90
f 96/7/91 99/8/92 100/11/93 93/12/94
f 93/7/4 100/8/4 101/9/4 94/10/4
f 94/10/4 101/9/4 102/11/4 98/12/4
f 98/25/95 102/11/96 103/8/97 97/27/98
f 97/7/42 103/8/42 104/9/42 95/10/42
f 95/10/42 104/9/42 99/11/42 96/12/42
f 105/8/99 106/11/100 107/25/101 108/27/102
f 106/11/103 105/8/104 109/7/105 110/12/106
f 100/11/107 99/8/108 108/7/109 107/12/110
f 101/9/4 100/8/4 107/7/4 106/10/4
f 102/11/4 101/9/4 106/10/4 110/12/4
f 103/8/111 102/11/112 110/25/113 109/27/114
f 104/9/42 103/8/42 109/7/42 105/10/42
f 99/11/42 104/9/42 105/10/42 108/12/42
