# Made in Blockbench 5.1.4
mtllib Botella de agua.mtl

o mesh
v 0.016 0.3125 0.016
v 0.016 0.3125 -0.016
v 0.04 0.012499999999999997 0.04
v 0.04 0.012499999999999997 -0.04
v -0.016 0.3125 0.016
v -0.016 0.3125 -0.016
v -0.04 0.012499999999999997 0.04
v -0.04 0.012499999999999997 -0.04
v -0.04 0.15625 0.04
v -0.04 0.15625 -0.04
v 0.04 0.15625 -0.04
v 0.04 0.15625 0.04
v -0.04 0.078125 0.04
v -0.04 0.078125 -0.04
v 0.04 0.078125 -0.04
v 0.04 0.078125 0.04
v -0.04 0.234375 -0.04
v -0.04 0.234375 0.04
v 0.04 0.234375 0.04
v 0.04 0.234375 -0.04
v -0.05 0.234375 0
v -0.02 0.3125 0
v 0.02 0.3125 0
v 0.05 0.234375 0
v 0.05 0.15625 0
v 0.05 0.078125 0
v 0.05 0.012499999999999997 0
v -0.05 0.012499999999999997 0
v -0.05 0.078125 0
v -0.05 0.15625 0
v -0.05 0.15625 -0.025
v -0.05 0.234375 -0.025
v -0.02 0.3125 -0.01
v 0.02 0.3125 -0.01
v 0.05 0.234375 -0.025
v 0.05 0.15625 -0.025
v 0.05 0.078125 -0.025
v 0.05 0.012499999999999997 -0.025
v -0.05 0.012499999999999997 -0.025
v -0.05 0.078125 -0.025
v -0.02 0.3125 0.01
v -0.05 0.234375 0.025
v -0.05 0.15625 0.025
v -0.05 0.078125 0.025
v -0.05 0.012499999999999997 0.025
v 0.05 0.012499999999999997 0.025
v 0.05 0.078125 0.025
v 0.05 0.15625 0.025
v 0.05 0.234375 0.025
v 0.02 0.3125 0.01
v 0 0.234375 -0.05
v 0 0.3125 -0.02
v 0 0.3125 0.02
v 0 0.234375 0.05
v 0 0.15625 0.05
v 0 0.078125 0.05
v 0 0.012499999999999997 0.05
v 0 0 0.04
v 0 0 0
v 0 0 -0.04
v 0 0.012499999999999997 -0.05
v 0 0.078125 -0.05
v 0 0.15625 -0.05
v 0.025 0.234375 -0.05
v 0.01 0.3125 -0.02
v 0.01 0.3125 0.02
v 0.025 0.234375 0.05
v 0.025 0.15625 0.05
v 0.025 0.078125 0.05
v 0.025 0.012499999999999997 0.05
v 0.035 0 0.035
v 0.04 0 0
v 0.035 0 -0.035
v 0.025 0.012499999999999997 -0.05
v 0.025 0.078125 -0.05
v 0.025 0.15625 -0.05
v -0.01 0.3125 -0.02
v -0.025 0.234375 -0.05
v -0.025 0.15625 -0.05
v -0.025 0.078125 -0.05
v -0.025 0.012499999999999997 -0.05
v -0.035 0 -0.035
v -0.04 0 0
v -0.035 0 0.035
v -0.025 0.012499999999999997 0.05
v -0.025 0.078125 0.05
v -0.025 0.15625 0.05
v -0.025 0.234375 0.05
v -0.01 0.3125 0.02
v -0.045 0.1953125 -0.0225
v -0.045 0.1953125 0
v -0.045 0.1953125 0.0225
v -0.036 0.1953125 0.036
v -0.0225 0.1953125 0.045
v 0 0.1953125 0.045
v 0.0225 0.1953125 0.045
v 0.036 0.1953125 0.036
v 0.045 0.1953125 0.0225
v 0.045 0.1953125 0
v 0.045 0.1953125 -0.0225
v 0.036 0.1953125 -0.036
v 0.0225 0.1953125 -0.045
v 0 0.1953125 -0.045
v -0.0225 0.1953125 -0.045
v -0.036 0.1953125 -0.036
v -0.05 0.21484375 -0.025
v -0.05 0.21484375 0
v -0.05 0.21484375 0.025
v -0.04 0.21484375 0.04
v -0.025 0.21484375 0.05
v 0 0.21484375 0.05
v 0.025 0.21484375 0.05
v 0.04 0.21484375 0.04
v 0.05 0.21484375 0.025
v 0.05 0.21484375 0
v 0.05 0.21484375 -0.025
v 0.04 0.21484375 -0.04
v 0.025 0.21484375 -0.05
v 0 0.21484375 -0.05
v -0.025 0.21484375 -0.05
v -0.04 0.21484375 -0.04
v -0.05 0.17578125 0
v -0.05 0.17578125 -0.025
v -0.04 0.17578125 -0.04
v -0.025 0.17578125 -0.05
v 0 0.17578125 -0.05
v 0.025 0.17578125 -0.05
v 0.04 0.17578125 -0.04
v 0.05 0.17578125 -0.025
v 0.05 0.17578125 0
v 0.05 0.17578125 0.025
v 0.04 0.17578125 0.04
v 0.025 0.17578125 0.05
v 0 0.17578125 0.05
v -0.025 0.17578125 0.05
v -0.04 0.17578125 0.04
v -0.05 0.17578125 0.025
v 0.025 0.2734375 -0.05
v 0 0.2734375 -0.05
v -0.025 0.2734375 -0.05
v -0.04 0.2734375 -0.04
v -0.05 0.2734375 -0.025
v -0.05 0.2734375 0
v -0.05 0.2734375 0.025
v -0.04 0.2734375 0.04
v -0.025 0.2734375 0.05
v 0 0.2734375 0.05
v 0.025 0.2734375 0.05
v 0.04 0.2734375 0.04
v 0.05 0.2734375 0.025
v 0.05 0.2734375 0
v 0.05 0.2734375 -0.025
v 0.04 0.2734375 -0.04
v 0 0.325 -0.02
v -0.01 0.325 -0.02
v 0.01 0.325 -0.02
v 0.016 0.325 -0.016
v 0.02 0.325 -0.01
v 0.02 0.325 0
v 0.02 0.325 0.01
v 0.01 0.325 0.02
v 0.016 0.325 0.016
v -0.01 0.325 0.02
v 0 0.325 0.02
v -0.02 0.325 -0.01
v -0.016 0.325 -0.016
v -0.02 0.325 0
v -0.02 0.325 0.01
v -0.016 0.325 0.016
v 0 0.34375 -0.02
v -0.01 0.34375 -0.01
v -0.01 0.34375 -0.02
v 0 0.34375 -0.01
v 0.01 0.34375 -0.02
v 0.01 0.34375 -0.01
v 0.016 0.34375 -0.016
v 0.02 0.34375 -0.01
v 0.01 0.34375 0
v 0.02 0.34375 0
v 0 0.34375 0.01
v 0.01 0.34375 0.01
v 0 0.34375 0
v 0.02 0.34375 0.01
v 0.01 0.34375 0.02
v 0.016 0.34375 0.016
v -0.01 0.34375 0.02
v -0.01 0.34375 0.01
v 0 0.34375 0.02
v -0.01 0.34375 0
v -0.02 0.34375 -0.01
v -0.016 0.34375 -0.016
v -0.02 0.34375 0
v -0.02 0.34375 0.01
v -0.016 0.34375 0.016
v -0.01834125 0.34375 0.01834125
v -0.02423375 0.34375 0.00874625
v -0.02423375 0.325 0.00874625
v -0.01834125 0.325 0.01834125
v -0.025 0.34375 0
v -0.025 0.325 0
v -0.02423375 0.34375 -0.00874625
v -0.01834125 0.34375 -0.01834125
v -0.01834125 0.325 -0.01834125
v -0.02423375 0.325 -0.00874625
v -0.00874625 0.34375 -0.02423375
v -0.00874625 0.325 -0.02423375
v 0 0.34375 -0.025
v 0 0.325 -0.025
v 0.00874625 0.34375 -0.02423375
v 0.00874625 0.325 -0.02423375
v 0.01834125 0.34375 -0.01834125
v 0.01834125 0.325 -0.01834125
v 0.02423375 0.34375 -0.00874625
v 0.02423375 0.325 -0.00874625
v 0.025 0.34375 0
v 0.025 0.325 0
v 0.02423375 0.34375 0.00874625
v 0.02423375 0.325 0.00874625
v 0.01834125 0.34375 0.01834125
v 0.01834125 0.325 0.01834125
v 0.00874625 0.34375 0.02423375
v 0.00874625 0.325 0.02423375
v 0 0.34375 0.025
v 0 0.325 0.025
v -0.00874625 0.34375 0.02423375
v -0.00874625 0.325 0.02423375
vt 0.015625 0.9765625
vt 0.015625 0.97265625
vt 0.03125 0.97265625
vt 0.03125 0.9765625
vt 0.03125 0.9765625
vt 0.03125 0.97265625
vt 0.046875 0.97265625
vt 0.046875 0.9765625
vt 0.03125 0.96875
vt 0.015625 0.96875
vt 0.015625 0.953125
vt 0.03125 0.953125
vt 0.03125 0.984375
vt 0.015625 0.984375
vt 0.015625 0.96875
vt 0.03125 0.96875
vt 0.015625 0.9765625
vt 0.015625 0.97265625
vt 0.03125 0.97265625
vt 0.03125 0.9765625
vt 0.03125 0.9765625
vt 0.03125 0.97265625
vt 0.046875 0.97265625
vt 0.046875 0.9765625
vt 0.03125 0.953125
vt 0.046875 0.953125
vt 0.046875 0.96875
vt 0.03125 0.96875
vt 0.03125 0.953125
vt 0.046875 0.953125
vt 0.046875 0.96875
vt 0.03125 0.96875
vt 0.03125 0.96875
vt 0.015625 0.96875
vt 0.015625 0.953125
vt 0.03125 0.953125
vt 0.03125 0.96875
vt 0.015625 0.96875
vt 0.015625 0.953125
vt 0.03125 0.953125
vt 0.03125 0.9375
vt 0.046875 0.9375
vt 0.046875 0.953125
vt 0.03125 0.953125
vt 0.03125 0.9375
vt 0.046875 0.9375
vt 0.046875 0.953125
vt 0.03125 0.953125
vt 0.03125 0.953125
vt 0.015625 0.953125
vt 0.015625 0.9375
vt 0.03125 0.9375
vt 0.03125 0.953125
vt 0.015625 0.953125
vt 0.015625 0.9375
vt 0.03125 0.9375
vt 0.046875 0.984375
vt 0.046875 0.9921875
vt 0.03125 0.9921875
vt 0.03125 0.984375
vt 0.03125 0.984375
vt 0.03125 0.9921875
vt 0.015625 0.9921875
vt 0.015625 0.984375
vt 0.03125 0.984375
vt 0.03125 0.9921875
vt 0.015625 0.9921875
vt 0.015625 0.984375
vt 0.046875 0.984375
vt 0.046875 0.9921875
vt 0.03125 0.9921875
vt 0.03125 0.984375
vt 0.03125 0.984375
vt 0.03125 0.9921875
vt 0.015625 0.9921875
vt 0.015625 0.984375
vt 0.03125 0.984375
vt 0.015625 0.984375
vt 0.015625 0.96875
vt 0.03125 0.96875
vt 0.046875 0.984375
vt 0.046875 0.9921875
vt 0.03125 0.9921875
vt 0.03125 0.984375
vt 0.03125 0.9765625
vt 0.03125 0.97265625
vt 0.046875 0.97265625
vt 0.046875 0.9765625
vt 0.03125 0.953125
vt 0.046875 0.953125
vt 0.046875 0.96875
vt 0.03125 0.96875
vt 0.03125 0.9375
vt 0.046875 0.9375
vt 0.046875 0.953125
vt 0.03125 0.953125
vt 0.03125 0.96875
vt 0.015625 0.96875
vt 0.015625 0.953125
vt 0.03125 0.953125
vt 0.03125 0.953125
vt 0.015625 0.953125
vt 0.015625 0.9375
vt 0.03125 0.9375
vt 0.03125 0.96875
vt 0.015625 0.96875
vt 0.015625 0.953125
vt 0.03125 0.953125
vt 0.015625 0.9765625
vt 0.015625 0.97265625
vt 0.03125 0.97265625
vt 0.03125 0.9765625
vt 0 0.9765625
vt 0 0.97265625
vt 0.015625 0.97265625
vt 0.015625 0.9765625
vt 0.015625 0.984375
vt 0.015625 0.9921875
vt 0 0.9921875
vt 0 0.984375
vt 0.03125 1
vt 0.015625 1
vt 0.015625 0.984375
vt 0.03125 0.984375
vt 0.0625 0.984375
vt 0.0625 0.9921875
vt 0.046875 0.9921875
vt 0.046875 0.984375
vt 0.046875 0.9765625
vt 0.046875 0.97265625
vt 0.0625 0.97265625
vt 0.0625 0.9765625
vt 0.0625 0.96875
vt 0.046875 0.96875
vt 0.046875 0.953125
vt 0.0625 0.953125
vt 0.0625 0.953125
vt 0.046875 0.953125
vt 0.046875 0.9375
vt 0.0625 0.9375
vt 0.03125 0.953125
vt 0.015625 0.953125
vt 0.015625 0.9375
vt 0.03125 0.9375
vt 0 0.9375
vt 0.015625 0.9375
vt 0.015625 0.953125
vt 0 0.953125
vt 0 0.953125
vt 0.015625 0.953125
vt 0.015625 0.96875
vt 0 0.96875
vt 0.0625 0.984375
vt 0.0625 0.9921875
vt 0.046875 0.9921875
vt 0.046875 0.984375
vt 0.046875 0.9765625
vt 0.046875 0.97265625
vt 0.0625 0.97265625
vt 0.0625 0.9765625
vt 0.0625 0.96875
vt 0.046875 0.96875
vt 0.046875 0.953125
vt 0.0625 0.953125
vt 0.0625 0.953125
vt 0.046875 0.953125
vt 0.046875 0.9375
vt 0.0625 0.9375
vt 0.03125 1
vt 0.015625 1
vt 0.015625 0.984375
vt 0.03125 0.984375
vt 0 0.9375
vt 0.015625 0.9375
vt 0.015625 0.953125
vt 0 0.953125
vt 0 0.953125
vt 0.015625 0.953125
vt 0.015625 0.96875
vt 0 0.96875
vt 0 0.9765625
vt 0 0.97265625
vt 0.015625 0.97265625
vt 0.015625 0.9765625
vt 0.015625 0.984375
vt 0.015625 0.9921875
vt 0 0.9921875
vt 0 0.984375
vt 0.03125 0.953125
vt 0.015625 0.953125
vt 0.015625 0.9375
vt 0.03125 0.9375
vt 0.03125 0.984375
vt 0.03125 0.9921875
vt 0.015625 0.9921875
vt 0.015625 0.984375
vt 0.03125 0.984375
vt 0.046875 0.984375
vt 0.046875 1
vt 0.03125 1
vt 0.03125 0.96875
vt 0.046875 0.96875
vt 0.046875 0.984375
vt 0.03125 0.984375
vt 0.03125 0.953125
vt 0.046875 0.953125
vt 0.046875 0.96875
vt 0.03125 0.96875
vt 0.03125 0.9375
vt 0.046875 0.9375
vt 0.046875 0.953125
vt 0.03125 0.953125
vt 0.046875 0.984375
vt 0.046875 0.9921875
vt 0.03125 0.9921875
vt 0.03125 0.984375
vt 0.03125 0.9765625
vt 0.03125 0.97265625
vt 0.046875 0.97265625
vt 0.046875 0.9765625
vt 0.03125 0.953125
vt 0.046875 0.953125
vt 0.046875 0.96875
vt 0.03125 0.96875
vt 0.03125 0.9375
vt 0.046875 0.9375
vt 0.046875 0.953125
vt 0.03125 0.953125
vt 0.03125 0.984375
vt 0.046875 0.984375
vt 0.046875 1
vt 0.03125 1
vt 0.03125 0.96875
vt 0.046875 0.96875
vt 0.046875 0.984375
vt 0.03125 0.984375
vt 0.03125 0.953125
vt 0.046875 0.953125
vt 0.046875 0.96875
vt 0.03125 0.96875
vt 0.03125 0.9375
vt 0.046875 0.9375
vt 0.046875 0.953125
vt 0.03125 0.953125
vt 0.03125 0.953125
vt 0.015625 0.953125
vt 0.015625 0.9375
vt 0.03125 0.9375
vt 0.03125 0.96875
vt 0.015625 0.96875
vt 0.015625 0.953125
vt 0.03125 0.953125
vt 0.015625 0.9765625
vt 0.015625 0.97265625
vt 0.03125 0.97265625
vt 0.03125 0.9765625
vt 0.015625 0.984375
vt 0.015625 0.9921875
vt 0 0.9921875
vt 0 0.984375
vt 0.0625 1
vt 0.046875 1
vt 0.046875 0.984375
vt 0.0625 0.984375
vt 0.0625 0.984375
vt 0.046875 0.984375
vt 0.046875 0.96875
vt 0.0625 0.96875
vt 0.0625 0.96875
vt 0.046875 0.96875
vt 0.046875 0.953125
vt 0.0625 0.953125
vt 0.0625 0.953125
vt 0.046875 0.953125
vt 0.046875 0.9375
vt 0.0625 0.9375
vt 0.0625 0.984375
vt 0.0625 0.9921875
vt 0.046875 0.9921875
vt 0.046875 0.984375
vt 0.046875 0.9765625
vt 0.046875 0.97265625
vt 0.0625 0.97265625
vt 0.0625 0.9765625
vt 0.0625 0.96875
vt 0.046875 0.96875
vt 0.046875 0.953125
vt 0.0625 0.953125
vt 0.0625 0.953125
vt 0.046875 0.953125
vt 0.046875 0.9375
vt 0.0625 0.9375
vt 0.0625 1
vt 0.046875 1
vt 0.046875 0.984375
vt 0.0625 0.984375
vt 0.0625 0.984375
vt 0.046875 0.984375
vt 0.046875 0.96875
vt 0.0625 0.96875
vt 0.0625 0.96875
vt 0.046875 0.96875
vt 0.046875 0.953125
vt 0.0625 0.953125
vt 0.0625 0.953125
vt 0.046875 0.953125
vt 0.046875 0.9375
vt 0.0625 0.9375
vt 0 0.9375
vt 0.015625 0.9375
vt 0.015625 0.953125
vt 0 0.953125
vt 0 0.953125
vt 0.015625 0.953125
vt 0.015625 0.96875
vt 0 0.96875
vt 0 0.9765625
vt 0 0.97265625
vt 0.015625 0.97265625
vt 0.015625 0.9765625
vt 0.0625 0.984375
vt 0.0625 0.9921875
vt 0.046875 0.9921875
vt 0.046875 0.984375
vt 0.046875 0.9765625
vt 0.046875 0.97265625
vt 0.0625 0.97265625
vt 0.0625 0.9765625
vt 0.0625 0.96875
vt 0.046875 0.96875
vt 0.046875 0.953125
vt 0.0625 0.953125
vt 0.0625 0.953125
vt 0.046875 0.953125
vt 0.046875 0.9375
vt 0.0625 0.9375
vt 0 0.9375
vt 0.015625 0.9375
vt 0.015625 0.953125
vt 0 0.953125
vt 0 0.953125
vt 0.015625 0.953125
vt 0.015625 0.96875
vt 0 0.96875
vt 0 0.96875
vt 0.015625 0.96875
vt 0.015625 0.984375
vt 0 0.984375
vt 0 0.984375
vt 0.015625 0.984375
vt 0.015625 1
vt 0 1
vt 0 0.9375
vt 0.015625 0.9375
vt 0.015625 0.953125
vt 0 0.953125
vt 0 0.953125
vt 0.015625 0.953125
vt 0.015625 0.96875
vt 0 0.96875
vt 0 0.9765625
vt 0 0.97265625
vt 0.015625 0.97265625
vt 0.015625 0.9765625
vt 0.015625 0.984375
vt 0.015625 0.9921875
vt 0 0.9921875
vt 0 0.984375
vt 0 0.9375
vt 0.015625 0.9375
vt 0.015625 0.953125
vt 0 0.953125
vt 0 0.953125
vt 0.015625 0.953125
vt 0.015625 0.96875
vt 0 0.96875
vt 0 0.96875
vt 0.015625 0.96875
vt 0.015625 0.984375
vt 0 0.984375
vt 0 0.984375
vt 0.015625 0.984375
vt 0.015625 1
vt 0 1
vt 0.03125 0.9765625
vt 0.03125 0.98046875
vt 0.015625 0.98046875
vt 0.015625 0.9765625
vt 0.046875 0.9765625
vt 0.046875 0.98046875
vt 0.03125 0.98046875
vt 0.03125 0.9765625
vt 0.0625 0.9765625
vt 0.0625 0.98046875
vt 0.046875 0.98046875
vt 0.046875 0.9765625
vt 0.015625 0.9765625
vt 0.015625 0.98046875
vt 0 0.98046875
vt 0 0.9765625
vt 0.03125 0.9765625
vt 0.03125 0.98046875
vt 0.015625 0.98046875
vt 0.015625 0.9765625
vt 0.046875 0.9765625
vt 0.046875 0.98046875
vt 0.03125 0.98046875
vt 0.03125 0.9765625
vt 0.0625 0.9765625
vt 0.0625 0.98046875
vt 0.046875 0.98046875
vt 0.046875 0.9765625
vt 0.015625 0.9765625
vt 0.015625 0.98046875
vt 0 0.98046875
vt 0 0.9765625
vt 0.03125 0.9765625
vt 0.03125 0.98046875
vt 0.015625 0.98046875
vt 0.015625 0.9765625
vt 0.046875 0.9765625
vt 0.046875 0.98046875
vt 0.03125 0.98046875
vt 0.03125 0.9765625
vt 0.0625 0.9765625
vt 0.0625 0.98046875
vt 0.046875 0.98046875
vt 0.046875 0.9765625
vt 0.015625 0.9765625
vt 0.015625 0.98046875
vt 0 0.98046875
vt 0 0.9765625
vt 0.03125 0.9765625
vt 0.03125 0.98046875
vt 0.015625 0.98046875
vt 0.015625 0.9765625
vt 0.046875 0.9765625
vt 0.046875 0.98046875
vt 0.03125 0.98046875
vt 0.03125 0.9765625
vt 0.0625 0.9765625
vt 0.0625 0.98046875
vt 0.046875 0.98046875
vt 0.046875 0.9765625
vt 0.015625 0.9765625
vt 0.015625 0.98046875
vt 0 0.98046875
vt 0 0.9765625
vt 0.015625 0.984375
vt 0.015625 0.98046875
vt 0.03125 0.98046875
vt 0.03125 0.984375
vt 0.03125 0.984375
vt 0.03125 0.98046875
vt 0.046875 0.98046875
vt 0.046875 0.984375
vt 0.046875 0.984375
vt 0.046875 0.98046875
vt 0.0625 0.98046875
vt 0.0625 0.984375
vt 0 0.984375
vt 0 0.98046875
vt 0.015625 0.98046875
vt 0.015625 0.984375
vt 0.015625 0.984375
vt 0.015625 0.98046875
vt 0.03125 0.98046875
vt 0.03125 0.984375
vt 0.03125 0.984375
vt 0.03125 0.98046875
vt 0.046875 0.98046875
vt 0.046875 0.984375
vt 0.046875 0.984375
vt 0.046875 0.98046875
vt 0.0625 0.98046875
vt 0.0625 0.984375
vt 0 0.984375
vt 0 0.98046875
vt 0.015625 0.98046875
vt 0.015625 0.984375
vt 0.015625 0.984375
vt 0.015625 0.98046875
vt 0.03125 0.98046875
vt 0.03125 0.984375
vt 0.03125 0.984375
vt 0.03125 0.98046875
vt 0.046875 0.98046875
vt 0.046875 0.984375
vt 0.046875 0.984375
vt 0.046875 0.98046875
vt 0.0625 0.98046875
vt 0.0625 0.984375
vt 0 0.984375
vt 0 0.98046875
vt 0.015625 0.98046875
vt 0.015625 0.984375
vt 0.015625 0.984375
vt 0.015625 0.98046875
vt 0.03125 0.98046875
vt 0.03125 0.984375
vt 0.03125 0.984375
vt 0.03125 0.98046875
vt 0.046875 0.98046875
vt 0.046875 0.984375
vt 0.046875 0.984375
vt 0.046875 0.98046875
vt 0.0625 0.98046875
vt 0.0625 0.984375
vt 0 0.984375
vt 0 0.98046875
vt 0.015625 0.98046875
vt 0.015625 0.984375
vt 0.03125 0.96875
vt 0.03125 0.97265625
vt 0.015625 0.97265625
vt 0.015625 0.96875
vt 0.015625 0.96875
vt 0.015625 0.97265625
vt 0 0.97265625
vt 0 0.96875
vt 0.0625 0.96875
vt 0.0625 0.97265625
vt 0.046875 0.97265625
vt 0.046875 0.96875
vt 0.046875 0.96875
vt 0.046875 0.97265625
vt 0.03125 0.97265625
vt 0.03125 0.96875
vt 0.03125 0.96875
vt 0.03125 0.97265625
vt 0.015625 0.97265625
vt 0.015625 0.96875
vt 0.015625 0.96875
vt 0.015625 0.97265625
vt 0 0.97265625
vt 0 0.96875
vt 0.0625 0.96875
vt 0.0625 0.97265625
vt 0.046875 0.97265625
vt 0.046875 0.96875
vt 0.046875 0.96875
vt 0.046875 0.97265625
vt 0.03125 0.97265625
vt 0.03125 0.96875
vt 0.03125 0.96875
vt 0.03125 0.97265625
vt 0.015625 0.97265625
vt 0.015625 0.96875
vt 0.015625 0.96875
vt 0.015625 0.97265625
vt 0 0.97265625
vt 0 0.96875
vt 0.0625 0.96875
vt 0.0625 0.97265625
vt 0.046875 0.97265625
vt 0.046875 0.96875
vt 0.046875 0.96875
vt 0.046875 0.97265625
vt 0.03125 0.97265625
vt 0.03125 0.96875
vt 0.03125 0.96875
vt 0.03125 0.97265625
vt 0.015625 0.97265625
vt 0.015625 0.96875
vt 0.015625 0.96875
vt 0.015625 0.97265625
vt 0 0.97265625
vt 0 0.96875
vt 0.0625 0.96875
vt 0.0625 0.97265625
vt 0.046875 0.97265625
vt 0.046875 0.96875
vt 0.046875 0.96875
vt 0.046875 0.97265625
vt 0.03125 0.97265625
vt 0.03125 0.96875
vt 0.015625 1
vt 0.015625 0.9921875
vt 0.03125 0.9921875
vt 0.03125 1
vt 0.03125 1
vt 0.03125 0.9921875
vt 0.046875 0.9921875
vt 0.046875 1
vt 0.046875 1
vt 0.046875 0.9921875
vt 0.0625 0.9921875
vt 0.0625 1
vt 0 1
vt 0 0.9921875
vt 0.015625 0.9921875
vt 0.015625 1
vt 0.015625 1
vt 0.015625 0.9921875
vt 0.03125 0.9921875
vt 0.03125 1
vt 0.03125 1
vt 0.03125 0.9921875
vt 0.046875 0.9921875
vt 0.046875 1
vt 0.046875 1
vt 0.046875 0.9921875
vt 0.0625 0.9921875
vt 0.0625 1
vt 0 1
vt 0 0.9921875
vt 0.015625 0.9921875
vt 0.015625 1
vt 0.015625 1
vt 0.015625 0.9921875
vt 0.03125 0.9921875
vt 0.03125 1
vt 0.03125 1
vt 0.03125 0.9921875
vt 0.046875 0.9921875
vt 0.046875 1
vt 0.046875 1
vt 0.046875 0.9921875
vt 0.0625 0.9921875
vt 0.0625 1
vt 0 1
vt 0 0.9921875
vt 0.015625 0.9921875
vt 0.015625 1
vt 0.015625 1
vt 0.015625 0.9921875
vt 0.03125 0.9921875
vt 0.03125 1
vt 0.03125 1
vt 0.03125 0.9921875
vt 0.046875 0.9921875
vt 0.046875 1
vt 0.046875 1
vt 0.046875 0.9921875
vt 0.0625 0.9921875
vt 0.0625 1
vt 0 1
vt 0 0.9921875
vt 0.015625 0.9921875
vt 0.015625 1
vt 0.0125 1
vt 0 1
vt 0 0.9375
vt 0.0125 0.9375
vt 0.0125 1
vt 0 1
vt 0 0.9375
vt 0.0125 0.9375
vt 0.00901875 1
vt 0 1
vt 0 0.9375
vt 0.00901875 0.9375
vt 0.00901875 1
vt 0 1
vt 0 0.9375
vt 0.00901875 0.9375
vt 0.0125 1
vt 0 1
vt 0 0.9375
vt 0.0125 0.9375
vt 0.075 1
vt 0.0625 1
vt 0.0625 0.9375
vt 0.075 0.9375
vt 0.00901875 1
vt 0 1
vt 0 0.9375
vt 0.00901875 0.9375
vt 0.07151875 1
vt 0.0625 1
vt 0.0625 0.9375
vt 0.07151875 0.9375
vt 0.0125 1
vt 0 1
vt 0 0.9375
vt 0.0125 0.9375
vt 0.0125 1
vt 0 1
vt 0 0.9375
vt 0.0125 0.9375
vt 0.00901875 1
vt 0 1
vt 0 0.9375
vt 0.00901875 0.9375
vt 0.00901875 1
vt 0 1
vt 0 0.9375
vt 0.00901875 0.9375
vt 0.0125 1
vt 0 1
vt 0 0.9375
vt 0.0125 0.9375
vt 0.0125 1
vt 0 1
vt 0 0.9375
vt 0.0125 0.9375
vt 0.00901875 1
vt 0 1
vt 0 0.9375
vt 0.00901875 0.9375
vt 0.00901875 1
vt 0 1
vt 0 0.9375
vt 0.00901875 0.9375
vt 0.0125 1
vt 0 1
vt 0 0.9375
vt 0.0125 0.9375
vt 0.0125 1
vt 0 1
vt 0 0.9375
vt 0.0125 0.9375
vt 0.00901875 1
vt 0 1
vt 0 0.9375
vt 0.00901875 0.9375
vt 0.00901875 1
vt 0 1
vt 0 0.9375
vt 0.00901875 0.9375
vt 0.0125 1
vt 0 1
vt 0 0.9375
vt 0.0125 0.9375
vt 0.075 1
vt 0.0625 1
vt 0.0625 0.9375
vt 0.075 0.9375
vt 0.00901875 1
vt 0 1
vt 0 0.9375
vt 0.00901875 0.9375
vt 0.07151875 1
vt 0.0625 1
vt 0.0625 0.9375
vt 0.07151875 0.9375
vt 0.0125 1
vt 0 1
vt 0 0.9375
vt 0.0125 0.9375
vt 0.0125 1
vt 0 1
vt 0 0.9375
vt 0.0125 0.9375
vt 0.00901875 1
vt 0 1
vt 0 0.9375
vt 0.00901875 0.9375
vt 0.00901875 1
vt 0 1
vt 0 0.9375
vt 0.00901875 0.9375
vt 0.0125 1
vt 0 1
vt 0 0.9375
vt 0.0125 0.9375
vt 0.0125 1
vt 0 1
vt 0 0.9375
vt 0.0125 0.9375
vt 0.00901875 1
vt 0 1
vt 0 0.9375
vt 0.00901875 0.9375
vt 0.00901875 1
vt 0 1
vt 0 0.9375
vt 0.00901875 0.9375
vt 0 1
vt 0.010008125 0.9618825
vt 0.0651125 0.991373125
vt 0.062500625 1
vt 0.038329375 1
vt 0 0.99083875
vt 0.029490625 0.935733125
vt 0.038329375 0.937500625
vt 0 1
vt 0.00268125 0.9693875
vt 0.0625 0.9875
vt 0.0625 1
vt 0.00268125 0.9375
vt 0 0.9068875
vt 0.0625 0.9068875
vt 0.0625 0.9193875
vt 0.038329375 1
vt 0 0.99083875
vt 0.029490625 0.935733125
vt 0.038329375 0.937500625
vt 0 1
vt 0.010008125 0.9618825
vt 0.0651125 0.991373125
vt 0.062500625 1
vt 0.00268125 1
vt 0 0.9693875
vt 0.0625 0.9693875
vt 0.0625 0.9818875
vt 0 1
vt 0.00268125 0.9693875
vt 0.0625 0.9875
vt 0.0625 1
vt 0.0381175 1
vt 0 0.989991875
vt 0.02949 0.9348875
vt 0.0381175 0.937499375
vt 0 1
vt 0.00916125 0.961670625
vt 0.064266875 0.99116125
vt 0.062499375 1
vt 0.0306125 1
vt 0 0.99731875
vt 0.0181125 0.9375
vt 0.0306125 0.9375
vt 0 0.94018125
vt 0.0306125 0.9375
vt 0.0306125 1
vt 0.0181125 1
vt 0.0306125 0.99731875
vt 0 1
vt 0 0.9375
vt 0.0125 0.9375
vt 0 0.9375
vt 0.0306125 0.94018125
vt 0.0125 1
vt 0 1
vt 0.064266875 0.961670625
vt 0.055105625 1
vt 0 0.970509375
vt 0.0017675 0.961670625
vt 0 0.9348875
vt 0.0381175 0.944895625
vt 0.008626875 1
vt 0 0.997388125
vt 0.0651125 0.9618825
vt 0.055104375 1
vt 0 0.97051
vt 0.002611875 0.9618825
vt 0 0.935733125
vt 0.038329375 0.944894375
vt 0.00883875 1
vt 0 0.9982325
vt 0.0625 0.9693875
vt 0.05981875 1
vt 0 0.9818875
vt 0 0.9693875
vt 0.05981875 0.9693875
vt 0.0625 1
vt 0 1
vt 0 0.9875
vt 0.05981875 0.9693875
vt 0.0625 1
vt 0 1
vt 0 0.9875
vt 0.0625 0.9068875
vt 0.05981875 0.9375
vt 0 0.9193875
vt 0 0.9068875
vt 0 0.935733125
vt 0.038329375 0.944894375
vt 0.00883875 1
vt 0 0.9982325
vt 0.0651125 0.9618825
vt 0.055104375 1
vt 0 0.97051
vt 0.002611875 0.9618825
vt 0 0.9348875
vt 0.0381175 0.944895625
vt 0.008626875 1
vt 0 0.997388125
vt 0.064266875 0.961670625
vt 0.055105625 1
vt 0 0.970509375
vt 0.0017675 0.961670625
vt 0 0.9375
vt 0.0306125 0.94018125
vt 0.0125 1
vt 0 1
vt 0.0306125 0.99731875
vt 0 1
vt 0 0.9375
vt 0.0125 0.9375
vt 0 0.94018125
vt 0.0306125 0.9375
vt 0.0306125 1
vt 0.0181125 1
vt 0.0306125 1
vt 0 0.99731875
vt 0.0181125 0.9375
vt 0.0306125 0.9375
vt 0 1
vt 0.00916125 0.961670625
vt 0.064266875 0.99116125
vt 0.062499375 1
vt 0.0381175 1
vt 0 0.989991875
vt 0.02949 0.9348875
vt 0.0381175 0.937499375
vn 0.9687594151763184 0.24800241028513773 0
vn -0.9687594151763184 0.24800241028513773 0
vn 0 1 0
vn 0 -1 0
vn 0 0.24800241028513773 0.9687594151763184
vn 0 0.24800241028513773 -0.9687594151763184
vn -1 0 0
vn 0 0 -1
vn 1 0 0
vn 0 0 1
vn -1 0 0
vn 0 0 -1
vn 1 0 0
vn 0 0 1
vn -1 0 0
vn 0 0 1
vn 1 0 0
vn 0 0 -1
vn -1 0 0
vn 0 1 0
vn 1 0 0
vn 0.9687594151763184 0.24800241028513773 0
vn 1 0 0
vn 1 0 0
vn 0 -1 0
vn -1 0 0
vn -1 0 0
vn -0.9687594151763184 0.24800241028513773 0
vn -0.8003963548071076 0.2732019557741597 -0.5335975698714053
vn -0.8320502943378438 0 -0.5547001962252293
vn 0 1 0
vn 0.8320502943378438 0 -0.5547001962252293
vn 0.8003963548071075 0.2732019557741596 -0.5335975698714052
vn 0.8320502943378438 0 -0.5547001962252293
vn 0.8320502943378436 0 -0.5547001962252293
vn -0.0963321401066145 -0.7321242648102707 -0.6743249807463019
vn -0.8320502943378436 0 -0.5547001962252293
vn -0.8320502943378438 0 -0.5547001962252293
vn -0.8320502943378438 0 0.5547001962252293
vn -0.8003963548071075 0.2732019557741596 0.5335975698714052
vn -0.8320502943378438 0 0.5547001962252293
vn -0.8320502943378436 0 0.5547001962252293
vn 0 -0.768221279597376 0.6401843996644798
vn 0.8320502943378436 0 0.5547001962252293
vn 0.8320502943378438 0 0.5547001962252293
vn 0.8003963548071076 0.2732019557741597 0.5335975698714053
vn 0.8320502943378438 0 0.5547001962252293
vn 0 1 0
vn 0 0 -1
vn 0 1 0
vn 0 1 0
vn 0 1 0
vn 0 1 0
vn 0 0 1
vn 0 0.24800241028513773 0.9687594151763184
vn 0 0 1
vn 0 0 1
vn 0.0963321401066145 -0.7321242648102707 0.6743249807463019
vn 0 -1 0
vn 0 -1 0
vn 0 -0.768221279597376 -0.6401843996644798
vn 0 0 -1
vn 0 0 -1
vn 0 0.24800241028513773 -0.9687594151763184
vn 0.5547001962252293 0 -0.8320502943378438
vn 0 1 0
vn 0 1 0
vn 0 1 0
vn 0 1 0
vn 0.5547001962252293 0 0.8320502943378438
vn 0.5335975698714052 0.2732019557741596 0.8003963548071075
vn 0.5547001962252293 0 0.8320502943378438
vn 0.5547001962252293 0 0.8320502943378436
vn 0.4850712500726661 -0.4850712500726659 0.7276068751089989
vn 0.6743249807463019 -0.7321242648102707 0.09633214010661449
vn 0.7760551227773624 -0.6208440982218902 -0.11086501753962312
vn 0.6804138174397717 -0.2721655269759086 -0.6804138174397717
vn 0.5547001962252293 0 -0.8320502943378436
vn 0.5547001962252293 0 -0.8320502943378438
vn 0.5335975698714053 0.2732019557741597 -0.8003963548071076
vn -0.5547001962252293 0 -0.8320502943378438
vn -0.5335975698714052 0.2732019557741596 -0.8003963548071075
vn -0.5547001962252293 0 -0.8320502943378438
vn -0.5547001962252293 0 -0.8320502943378436
vn -0.4850712500726661 -0.4850712500726659 -0.7276068751089989
vn -0.6743249807463019 -0.7321242648102707 -0.09633214010661449
vn -0.7760551227773624 -0.6208440982218902 0.11086501753962312
vn -0.6804138174397717 -0.2721655269759086 0.6804138174397717
vn -0.5547001962252293 0 0.8320502943378436
vn -0.5547001962252293 0 0.8320502943378438
vn -0.5335975698714053 0.2732019557741597 0.8003963548071076
vn -0.5547001962252293 0 0.8320502943378438
vn 0 1 0
vn 0 1 0
vn 0 1 0
vn 0 1 0
vn -0.9687594151763184 -0.24800241028513773 0
vn -0.9687594151763184 -0.24800241028513773 0
vn -0.8003963548071076 -0.2732019557741597 0.5335975698714053
vn -0.5335975698714052 -0.2732019557741596 0.8003963548071075
vn 0 -0.24800241028513773 0.9687594151763184
vn 0 -0.24800241028513773 0.9687594151763184
vn 0.5335975698714053 -0.2732019557741597 0.8003963548071076
vn 0.8003963548071075 -0.2732019557741596 0.5335975698714052
vn 0.9687594151763184 -0.24800241028513773 0
vn 0.9687594151763184 -0.24800241028513773 0
vn 0.8003963548071076 -0.2732019557741597 -0.5335975698714053
vn 0.5335975698714052 -0.2732019557741596 -0.8003963548071075
vn 0 -0.24800241028513773 -0.9687594151763184
vn 0 -0.24800241028513773 -0.9687594151763184
vn -0.5335975698714053 -0.2732019557741597 -0.8003963548071076
vn -0.8003963548071075 -0.2732019557741596 -0.5335975698714052
vn -1 0 0
vn -1 0 0
vn -0.8320502943378438 0 0.5547001962252293
vn -0.5547001962252293 0 0.8320502943378438
vn 0 0 1
vn 0 0 1
vn 0.5547001962252293 0 0.8320502943378438
vn 0.8320502943378438 0 0.5547001962252293
vn 1 0 0
vn 1 0 0
vn 0.8320502943378438 0 -0.5547001962252293
vn 0.5547001962252293 0 -0.8320502943378438
vn 0 0 -1
vn 0 0 -1
vn -0.5547001962252293 0 -0.8320502943378438
vn -0.8320502943378438 0 -0.5547001962252293
vn -1 0 0
vn -0.8320502943378438 0 -0.5547001962252293
vn -0.5547001962252293 0 -0.8320502943378438
vn 0 0 -1
vn 0 0 -1
vn 0.5547001962252293 0 -0.8320502943378438
vn 0.8320502943378438 0 -0.5547001962252293
vn 1 0 0
vn 1 0 0
vn 0.8320502943378438 0 0.5547001962252293
vn 0.5547001962252293 0 0.8320502943378438
vn 0 0 1
vn 0 0 1
vn -0.5547001962252293 0 0.8320502943378438
vn -0.8320502943378438 0 0.5547001962252293
vn -1 0 0
vn 0 0.6090973298116553 -0.7930954815255928
vn 0 0.6090973298116553 -0.7930954815255928
vn -0.42222682441543646 0.6485404023021103 -0.6333402366231543
vn -0.6333402366231544 0.6485404023021104 -0.4222268244154366
vn -0.7930954815255928 0.6090973298116553 0
vn -0.7930954815255928 0.6090973298116553 0
vn -0.6333402366231544 0.6485404023021104 0.4222268244154366
vn -0.42222682441543646 0.6485404023021103 0.6333402366231543
vn 0 0.6090973298116553 0.7930954815255928
vn 0 0.6090973298116553 0.7930954815255928
vn 0.42222682441543646 0.6485404023021103 0.6333402366231543
vn 0.6333402366231544 0.6485404023021104 0.4222268244154366
vn 0.7930954815255928 0.6090973298116553 0
vn 0.7930954815255928 0.6090973298116553 0
vn 0.6333402366231544 0.6485404023021104 -0.4222268244154366
vn 0.42222682441543646 0.6485404023021103 -0.6333402366231543
vn 0 0 -1
vn 0 0 -1
vn 0.5547001962252291 0 -0.8320502943378437
vn 0.8320502943378437 0 -0.5547001962252291
vn 1 0 0
vn 1 0 0
vn 0.5547001962252291 0 0.8320502943378437
vn 0.8320502943378437 0 0.5547001962252291
vn 0 0 1
vn 0 0 1
vn -0.5547001962252291 0 -0.8320502943378437
vn -0.8320502943378437 0 -0.5547001962252291
vn -1 0 0
vn -1 0 0
vn -0.5547001962252291 0 0.8320502943378437
vn -0.8320502943378437 0 0.5547001962252291
vn -0.08727468438455539 0 -0.9961842848918951
vn 0.08727468438455539 0 -0.9961842848918951
vn 0.5233167772319585 0 -0.8521382227476695
vn 0.8521382227476695 0 -0.5233167772319585
vn 0.9961842848918951 0 -0.08727468438455539
vn 0.9961842848918951 0 0.08727468438455539
vn 0.5233167772319585 0 0.8521382227476695
vn 0.8521382227476695 0 0.5233167772319585
vn -0.08727468438455539 0 0.9961842848918951
vn 0.08727468438455539 0 0.9961842848918951
vn -0.5233167772319585 0 -0.8521382227476695
vn -0.8521382227476695 0 -0.5233167772319585
vn -0.9961842848918951 0 -0.08727468438455539
vn -0.9961842848918951 0 0.08727468438455539
vn -0.5233167772319585 0 0.8521382227476695
vn -0.8521382227476695 0 0.5233167772319585
vn 0 1 0
vn 0 -1 0
vn 0 1 0
vn 0 -1 0
vn 0 1 0
vn 0 -1 0
vn 0 1 0
vn 0 -1 0
vn 0 1 0
vn 0 -1 0
vn 0 1 0
vn 0 -1 0
vn 0 1 0
vn 0 -1 0
vn 0 1 0
vn 0 -1 0
vn 0 1 0
vn 0 -1 0
vn 0 1 0
vn 0 -1 0
vn 0 1 0
vn 0 -1 0
vn 0 1 0
vn 0 -1 0
vn 0 1 0
vn 0 -1 0
vn 0 1 0
vn 0 -1 0
vn 0 1 0
vn 0 -1 0
vn 0 1 0
vn 0 -1 0
usemtl none
f 98/1/1 131/2/1 130/3/1 99/4/1
f 91/5/2 122/6/2 137/7/2 92/8/2
f 182/9/3 189/10/3 187/11/3 180/12/3
f 58/13/4 84/14/4 83/15/4 59/16/4
f 94/17/5 135/18/5 134/19/5 95/20/5
f 103/21/6 126/22/6 125/23/6 104/24/6
f 29/25/7 44/26/7 43/27/7 30/28/7
f 62/29/8 80/30/8 79/31/8 63/32/8
f 25/33/9 48/34/9 47/35/9 26/36/9
f 55/37/10 87/38/10 86/39/10 56/40/10
f 28/41/11 45/42/11 44/43/11 29/44/11
f 61/45/12 81/46/12 80/47/12 62/48/12
f 26/49/13 47/50/13 46/51/13 27/52/13
f 56/53/14 86/54/14 85/55/14 57/56/14
f 42/57/15 144/58/15 143/59/15 21/60/15
f 54/61/16 147/62/16 146/63/16 88/64/16
f 24/65/17 151/66/17 150/67/17 49/68/17
f 78/69/18 140/70/18 139/71/18 51/72/18
f 21/73/19 143/74/19 142/75/19 32/76/19
f 173/77/20 171/78/20 189/79/20 182/80/20
f 35/81/21 152/82/21 151/83/21 24/84/21
f 99/85/22 130/86/22 129/87/22 100/88/22
f 26/89/23 37/90/23 36/91/23 25/92/23
f 27/93/24 38/94/24 37/95/24 26/96/24
f 59/97/25 83/98/25 82/99/25 60/100/25
f 29/101/26 40/102/26 39/103/26 28/104/26
f 30/105/27 31/106/27 40/107/27 29/108/27
f 90/109/28 123/110/28 122/111/28 91/112/28
f 105/113/29 124/114/29 123/115/29 90/116/29
f 32/117/30 142/118/30 141/119/30 17/120/30
f 170/121/31 172/122/31 171/123/31 173/124/31
f 20/125/32 153/126/32 152/127/32 35/128/32
f 100/129/33 129/130/33 128/131/33 101/132/33
f 11/133/34 36/134/34 37/135/34 15/136/34
f 15/137/35 37/138/35 38/139/35 4/140/35
f 60/141/36 82/142/36 81/143/36 61/144/36
f 8/145/37 39/146/37 40/147/37 14/148/37
f 14/149/38 40/150/38 31/151/38 10/152/38
f 18/153/39 145/154/39 144/155/39 42/156/39
f 92/157/40 137/158/40 136/159/40 93/160/40
f 9/161/41 43/162/41 44/163/41 13/164/41
f 13/165/42 44/166/42 45/167/42 7/168/42
f 57/169/43 85/170/43 84/171/43 58/172/43
f 3/173/44 46/174/44 47/175/44 16/176/44
f 16/177/45 47/178/45 48/179/45 12/180/45
f 97/181/46 132/182/46 131/183/46 98/184/46
f 49/185/47 150/186/47 149/187/47 19/188/47
f 180/189/48 187/190/48 186/191/48 188/192/48
f 51/193/49 139/194/49 138/195/49 64/196/49
f 173/197/50 175/198/50 174/199/50 170/200/50
f 182/201/51 178/202/51 175/203/51 173/204/51
f 180/205/52 181/206/52 178/207/52 182/208/52
f 188/209/53 184/210/53 181/211/53 180/212/53
f 67/213/54 148/214/54 147/215/54 54/216/54
f 95/217/55 134/218/55 133/219/55 96/220/55
f 56/221/56 69/222/56 68/223/56 55/224/56
f 57/225/57 70/226/57 69/227/57 56/228/57
f 58/229/58 71/230/58 70/231/58 57/232/58
f 59/233/59 72/234/59 71/235/59 58/236/59
f 60/237/60 73/238/60 72/239/60 59/240/60
f 61/241/61 74/242/61 73/243/61 60/244/61
f 62/245/62 75/246/62 74/247/62 61/248/62
f 63/249/63 76/250/63 75/251/63 62/252/63
f 102/253/64 127/254/64 126/255/64 103/256/64
f 64/257/65 138/258/65 153/259/65 20/260/65
f 176/261/66 174/262/66 175/263/66 177/264/66
f 177/265/67 175/266/67 178/267/67 179/268/67
f 179/269/68 178/270/68 181/271/68 183/272/68
f 183/273/69 181/274/69 184/275/69 185/276/69
f 19/277/70 149/278/70 148/279/70 67/280/70
f 96/281/71 133/282/71 132/283/71 97/284/71
f 12/285/72 68/286/72 69/287/72 16/288/72
f 16/289/73 69/290/73 70/291/73 3/292/73
f 3/293/74 70/294/74 71/295/74 46/296/74
f 46/297/75 71/298/75 72/299/75 27/300/75
f 27/301/76 72/302/76 73/303/76 38/304/76
f 38/305/77 73/306/77 74/307/77 4/308/77
f 4/309/78 74/310/78 75/311/78 15/312/78
f 15/313/79 75/314/79 76/315/79 11/316/79
f 101/317/80 128/318/80 127/319/80 102/320/80
f 17/321/81 141/322/81 140/323/81 78/324/81
f 104/325/82 125/326/82 124/327/82 105/328/82
f 10/329/83 79/330/83 80/331/83 14/332/83
f 14/333/84 80/334/84 81/335/84 8/336/84
f 8/337/85 81/338/85 82/339/85 39/340/85
f 39/341/86 82/342/86 83/343/86 28/344/86
f 28/345/87 83/346/87 84/347/87 45/348/87
f 45/349/88 84/350/88 85/351/88 7/352/88
f 7/353/89 85/354/89 86/355/89 13/356/89
f 13/357/90 86/358/90 87/359/90 9/360/90
f 93/361/91 136/362/91 135/363/91 94/364/91
f 88/365/92 146/366/92 145/367/92 18/368/92
f 194/369/93 186/370/93 187/371/93 193/372/93
f 193/373/94 187/374/94 189/375/94 192/376/94
f 192/377/95 189/378/95 171/379/95 190/380/95
f 190/381/96 171/382/96 172/383/96 191/384/96
f 91/385/97 107/386/97 106/387/97 90/388/97
f 92/389/98 108/390/98 107/391/98 91/392/98
f 93/393/99 109/394/99 108/395/99 92/396/99
f 94/397/100 110/398/100 109/399/100 93/400/100
f 95/401/101 111/402/101 110/403/101 94/404/101
f 96/405/102 112/406/102 111/407/102 95/408/102
f 97/409/103 113/410/103 112/411/103 96/412/103
f 98/413/104 114/414/104 113/415/104 97/416/104
f 99/417/105 115/418/105 114/419/105 98/420/105
f 100/421/106 116/422/106 115/423/106 99/424/106
f 101/425/107 117/426/107 116/427/107 100/428/107
f 102/429/108 118/430/108 117/431/108 101/432/108
f 103/433/109 119/434/109 118/435/109 102/436/109
f 104/437/110 120/438/110 119/439/110 103/440/110
f 105/441/111 121/442/111 120/443/111 104/444/111
f 90/445/112 106/446/112 121/447/112 105/448/112
f 32/449/113 106/450/113 107/451/113 21/452/113
f 21/453/114 107/454/114 108/455/114 42/456/114
f 42/457/115 108/458/115 109/459/115 18/460/115
f 18/461/116 109/462/116 110/463/116 88/464/116
f 88/465/117 110/466/117 111/467/117 54/468/117
f 54/469/118 111/470/118 112/471/118 67/472/118
f 67/473/119 112/474/119 113/475/119 19/476/119
f 19/477/120 113/478/120 114/479/120 49/480/120
f 49/481/121 114/482/121 115/483/121 24/484/121
f 24/485/122 115/486/122 116/487/122 35/488/122
f 35/489/123 116/490/123 117/491/123 20/492/123
f 20/493/124 117/494/124 118/495/124 64/496/124
f 64/497/125 118/498/125 119/499/125 51/500/125
f 51/501/126 119/502/126 120/503/126 78/504/126
f 78/505/127 120/506/127 121/507/127 17/508/127
f 17/509/128 121/510/128 106/511/128 32/512/128
f 30/513/129 122/514/129 123/515/129 31/516/129
f 31/517/130 123/518/130 124/519/130 10/520/130
f 10/521/131 124/522/131 125/523/131 79/524/131
f 79/525/132 125/526/132 126/527/132 63/528/132
f 63/529/133 126/530/133 127/531/133 76/532/133
f 76/533/134 127/534/134 128/535/134 11/536/134
f 11/537/135 128/538/135 129/539/135 36/540/135
f 36/541/136 129/542/136 130/543/136 25/544/136
f 25/545/137 130/546/137 131/547/137 48/548/137
f 48/549/138 131/550/138 132/551/138 12/552/138
f 12/553/139 132/554/139 133/555/139 68/556/139
f 68/557/140 133/558/140 134/559/140 55/560/140
f 55/561/141 134/562/141 135/563/141 87/564/141
f 87/565/142 135/566/142 136/567/142 9/568/142
f 9/569/143 136/570/143 137/571/143 43/572/143
f 43/573/144 137/574/144 122/575/144 30/576/144
f 65/577/145 138/578/145 139/579/145 52/580/145
f 52/581/146 139/582/146 140/583/146 77/584/146
f 77/585/147 140/586/147 141/587/147 6/588/147
f 6/589/148 141/590/148 142/591/148 33/592/148
f 33/593/149 142/594/149 143/595/149 22/596/149
f 22/597/150 143/598/150 144/599/150 41/600/150
f 41/601/151 144/602/151 145/603/151 5/604/151
f 5/605/152 145/606/152 146/607/152 89/608/152
f 89/609/153 146/610/153 147/611/153 53/612/153
f 53/613/154 147/614/154 148/615/154 66/616/154
f 66/617/155 148/618/155 149/619/155 1/620/155
f 1/621/156 149/622/156 150/623/156 50/624/156
f 50/625/157 150/626/157 151/627/157 23/628/157
f 23/629/158 151/630/158 152/631/158 34/632/158
f 34/633/159 152/634/159 153/635/159 2/636/159
f 2/637/160 153/638/160 138/639/160 65/640/160
f 155/641/161 154/642/161 52/643/161 77/644/161
f 154/645/162 156/646/162 65/647/162 52/648/162
f 156/649/163 157/650/163 2/651/163 65/652/163
f 157/653/164 158/654/164 34/655/164 2/656/164
f 158/657/165 159/658/165 23/659/165 34/660/165
f 159/661/166 160/662/166 50/663/166 23/664/166
f 162/665/167 161/666/167 66/667/167 1/668/167
f 160/669/168 162/670/168 1/671/168 50/672/168
f 164/673/169 163/674/169 89/675/169 53/676/169
f 161/677/170 164/678/170 53/679/170 66/680/170
f 166/681/171 155/682/171 77/683/171 6/684/171
f 165/685/172 166/686/172 6/687/172 33/688/172
f 167/689/173 165/690/173 33/691/173 22/692/173
f 168/693/174 167/694/174 22/695/174 41/696/174
f 163/697/175 169/698/175 5/699/175 89/700/175
f 169/701/176 168/702/176 41/703/176 5/704/176
f 205/705/177 207/706/177 208/707/177 206/708/177
f 207/709/178 209/710/178 210/711/178 208/712/178
f 209/713/179 211/714/179 212/715/179 210/716/179
f 211/717/180 213/718/180 214/719/180 212/720/180
f 213/721/181 215/722/181 216/723/181 214/724/181
f 215/725/182 217/726/182 218/727/182 216/728/182
f 219/729/183 221/730/183 222/731/183 220/732/183
f 217/733/184 219/734/184 220/735/184 218/736/184
f 223/737/185 225/738/185 226/739/185 224/740/185
f 221/741/186 223/742/186 224/743/186 222/744/186
f 202/745/187 205/746/187 206/747/187 203/748/187
f 201/749/188 202/750/188 203/751/188 204/752/188
f 199/753/189 201/754/189 204/755/189 200/756/189
f 196/757/190 199/758/190 200/759/190 197/760/190
f 225/761/191 195/762/191 198/763/191 226/764/191
f 195/765/192 196/766/192 197/767/192 198/768/192
f 196/769/193 195/770/193 194/771/193 193/772/193
f 198/773/194 197/774/194 168/775/194 169/776/194
f 199/777/195 196/778/195 193/779/195 192/780/195
f 197/781/196 200/782/196 167/783/196 168/784/196
f 202/785/197 201/786/197 190/787/197 191/788/197
f 204/789/198 203/790/198 166/791/198 165/792/198
f 201/793/199 199/794/199 192/795/199 190/796/199
f 200/797/200 204/798/200 165/799/200 167/800/200
f 205/801/201 202/802/201 191/803/201 172/804/201
f 203/805/202 206/806/202 155/807/202 166/808/202
f 207/809/203 205/810/203 172/811/203 170/812/203
f 206/813/204 208/814/204 154/815/204 155/816/204
f 209/817/205 207/818/205 170/819/205 174/820/205
f 208/821/206 210/822/206 156/823/206 154/824/206
f 211/825/207 209/826/207 174/827/207 176/828/207
f 210/829/208 212/830/208 157/831/208 156/832/208
f 213/833/209 211/834/209 176/835/209 177/836/209
f 212/837/210 214/838/210 158/839/210 157/840/210
f 215/841/211 213/842/211 177/843/211 179/844/211
f 214/845/212 216/846/212 159/847/212 158/848/212
f 217/849/213 215/850/213 179/851/213 183/852/213
f 216/853/214 218/854/214 160/855/214 159/856/214
f 219/857/215 217/858/215 183/859/215 185/860/215
f 218/861/216 220/862/216 162/863/216 160/864/216
f 221/865/217 219/866/217 185/867/217 184/868/217
f 220/869/218 222/870/218 161/871/218 162/872/218
f 223/873/219 221/874/219 184/875/219 188/876/219
f 222/877/220 224/878/220 164/879/220 161/880/220
f 225/881/221 223/882/221 188/883/221 186/884/221
f 224/885/222 226/886/222 163/887/222 164/888/222
f 195/889/223 225/890/223 186/891/223 194/892/223
f 226/893/224 198/894/224 169/895/224 163/896/224