# Blender 5.2.2 LTS
# www.blender.org
mtllib cuchillodecocina.mtl
o Cuchillo
v 0.013475 -0.000556 0.020296
v 0.015925 -0.001781 -0.004205
v 0.015925 0.072944 -0.004205
v 0.013475 0.072944 0.020296
v -0.013475 0.072944 0.020296
v -0.015925 0.072944 -0.004205
v -0.015925 -0.001781 -0.004205
v -0.013475 -0.000556 0.020296
v 0.013475 -0.003006 -0.028705
v 0.000000 -0.003006 -0.031155
v 0.000000 0.072944 -0.031155
v 0.013475 0.072944 -0.028705
v 0.000000 0.072944 0.022745
v 0.000000 -0.000556 0.022745
v 0.003675 0.348569 -0.004205
v 0.000000 0.348569 -0.004205
v 0.000000 0.339994 0.000695
v 0.002356 0.342444 -0.001755
v 0.011025 -0.061806 0.020296
v 0.000000 -0.061806 0.020296
v 0.000000 -0.064256 -0.002980
v 0.011025 -0.064256 -0.002980
v 0.000000 -0.037306 0.027645
v 0.013475 -0.037306 0.027645
v -0.015925 -0.037306 -0.002980
v -0.013475 -0.037306 0.027645
v 0.013475 -0.037306 -0.028705
v 0.000000 -0.037306 -0.031155
v 0.015925 -0.037306 -0.002980
v -0.011025 -0.064256 -0.002980
v -0.011025 -0.061806 0.020296
v 0.011025 -0.061806 -0.026255
v 0.000000 -0.061806 -0.026255
v -0.011025 -0.061806 -0.026255
v -0.013475 -0.037306 -0.028705
v -0.013475 -0.003006 -0.028705
v -0.013475 0.072944 -0.028705
v 0.002356 0.374294 -0.028705
v 0.000000 0.391444 -0.031155
v -0.002356 0.342444 -0.001755
v -0.003675 0.348569 -0.004205
v -0.002356 0.374294 -0.028705
v 0.000000 0.073188 -0.031155
v 0.009706 0.073188 -0.028705
v 0.011025 0.073188 -0.004205
v -0.009706 0.073188 -0.028705
v -0.011025 0.073188 -0.004205
v 0.000000 0.073188 0.047246
v -0.009706 0.073188 0.044796
v 0.009706 0.073188 0.044796
v 0.008481 0.207816 -0.028705
v 0.009800 0.207816 -0.004205
v 0.000000 0.207816 -0.031155
v -0.008481 0.207816 -0.028705
v -0.009800 0.207816 -0.004205
v -0.003581 0.207816 0.032545
v 0.000000 0.207816 0.034995
v 0.003581 0.207816 0.032545
v -0.002968 0.275129 0.015396
v -0.009187 0.275129 -0.004205
v 0.000000 0.275129 0.017846
v 0.002968 0.275129 0.015396
v 0.009188 0.275129 -0.004205
v 0.007868 0.275129 -0.028705
v 0.000000 0.275129 -0.031155
v -0.007868 0.275129 -0.028705
vn 0.9950 -0.0000 0.0995
vn -0.9950 -0.0000 0.0995
vn -0.9950 0.0016 0.0996
vn 0.1789 -0.0000 -0.9839
vn 0.1789 -0.0000 0.9839
vn -0.0000 0.4962 0.8682
vn -0.0000 0.4961 0.8682
vn -0.0000 0.4961 0.8683
vn -0.0000 -0.9945 0.1047
vn 0.1774 0.1301 0.9755
vn -0.9950 0.0034 0.0993
vn -0.9951 0.0034 0.0993
vn 0.9968 0.0027 0.0797
vn 0.9968 0.0028 0.0798
vn -0.0000 -0.2873 0.9578
vn -0.9808 -0.1783 0.0785
vn -0.0000 -0.1961 -0.9806
vn 0.9837 -0.1789 0.0188
vn -0.0000 -0.9945 -0.1047
vn -0.9837 -0.1788 -0.0188
vn -0.9837 -0.1789 -0.0188
vn -0.9955 -0.0033 -0.0948
vn -0.9954 -0.0027 -0.0957
vn -0.9950 -0.0000 -0.0995
vn 0.9485 0.1686 0.2682
vn 0.9950 -0.0000 -0.0995
vn 0.9950 -0.0022 -0.1000
vn 0.9950 -0.0022 -0.1001
vn 0.9951 -0.0034 -0.0993
vn 0.9796 -0.1781 -0.0933
vn -0.1755 -0.1931 -0.9654
vn -0.0000 0.1322 0.9912
vn -0.1789 -0.0000 0.9839
vn -0.3609 0.4627 0.8097
vn -0.0000 0.5322 0.8466
vn -0.0000 0.5321 0.8467
vn -0.1789 -0.0000 -0.9839
vn 0.2448 -0.0001 -0.9696
vn 0.0645 0.9979 -0.0035
vn 0.0646 0.9979 -0.0035
vn -0.0626 0.9668 -0.2478
vn -0.0626 0.9668 -0.2479
vn -0.0497 0.9988 -0.0027
vn -0.0000 -0.9999 0.0101
vn -0.0024 -0.9999 0.0100
vn -0.0782 0.9969 0.0021
vn 0.0024 -0.9999 0.0103
vn 0.0497 0.9988 0.0013
vn 0.9985 0.0091 -0.0538
vn 0.2775 -0.0000 -0.9607
vn 0.2776 -0.0000 -0.9607
vn -0.2776 0.0025 -0.9607
vn -0.2775 0.0025 -0.9607
vn -0.9985 0.0091 -0.0538
vn -0.9842 0.0599 0.1666
vn -0.9842 0.0599 0.1665
vn -0.5631 0.0749 0.8230
vn 0.5619 0.1003 0.8211
vn 0.5618 0.1003 0.8211
vn 0.9859 0.0090 0.1668
vn 0.9859 0.0090 0.1669
vn -0.9497 0.0854 0.3013
vn -0.9500 0.0787 0.3020
vn -0.9500 0.0789 0.3021
vn -0.6247 0.1928 0.7567
vn -0.6244 0.1955 0.7563
vn -0.6246 0.1928 0.7567
vn 0.6239 0.1983 0.7559
vn 0.6239 0.1990 0.7558
vn 0.6238 0.1990 0.7558
vn 0.6240 0.1983 0.7559
vn 0.9531 0.0087 0.3024
vn 0.2973 -0.0000 -0.9548
vn -0.2973 0.0027 -0.9548
vn -0.2973 0.0013 -0.9548
vn -0.2973 0.0014 -0.9548
vn -0.9507 0.0714 0.3017
vn -0.6239 0.1983 0.7559
vn -0.6240 0.1983 0.7559
vn 0.6237 0.1998 0.7557
vn 0.9497 0.0854 0.3014
vn 0.9497 0.0854 0.3013
vn 0.9958 0.0747 -0.0536
vn 0.2973 0.0165 -0.9546
vn 0.2973 0.0165 -0.9547
vn -0.2973 -0.0000 -0.9548
vn -0.9970 0.0554 -0.0537
vt 0.181165 0.380029
vt 0.184009 0.356911
vt 0.209023 0.380729
vt 0.205770 0.403457
vt 0.167311 0.307704
vt 0.170571 0.284949
vt 0.195579 0.308761
vt 0.191908 0.331126
vt 0.235546 0.351676
vt 0.237357 0.339148
vt 0.262773 0.363349
vt 0.260961 0.375876
vt 0.212333 0.357722
vt 0.214208 0.345157
vt 0.238601 0.368936
vt 0.236727 0.381501
vt 0.486771 0.325077
vt 0.487306 0.321690
vt 0.490401 0.324524
vt 0.489120 0.325949
vt 0.209014 0.380799
vt 0.210472 0.370605
vt 0.218266 0.378027
vt 0.216808 0.388221
vt 0.251043 0.380507
vt 0.249291 0.392913
vt 0.207307 0.321212
vt 0.203242 0.349618
vt 0.224068 0.340746
vt 0.225879 0.328219
vt 0.167892 0.375105
vt 0.171955 0.346719
vt 0.258807 0.388911
vt 0.257373 0.399061
vt 0.216239 0.330103
vt 0.212363 0.350795
vt 0.216156 0.330749
vt 0.217609 0.320560
vt 0.160644 0.360598
vt 0.162899 0.338314
vt 0.226055 0.385443
vt 0.224596 0.395637
vt 0.218475 0.307848
vt 0.210641 0.297629
vt 0.199162 0.286699
vt 0.173745 0.262496
vt 0.559034 0.630003
vt 0.565159 0.633560
vt 0.546915 0.644343
vt 0.546942 0.644202
vt 0.212242 0.358188
vt 0.186818 0.333978
vt 0.175336 0.323045
vt 0.166793 0.317592
vt 0.227619 0.315839
vt 0.219062 0.310371
vt 0.227513 0.375249
vt 0.219724 0.367832
vt 0.211930 0.360411
vt 0.260240 0.378760
vt 0.252796 0.368101
vt 0.240231 0.356689
vt 0.215837 0.332910
vt 0.489806 0.321607
vt 0.487841 0.318303
vt 0.478120 0.498785
vt 0.478053 0.499016
vt 0.467093 0.459865
vt 0.472636 0.467576
vt 0.264513 0.350969
vt 0.239097 0.326769
vt 0.211626 0.430250
vt 0.211626 0.430387
vt 0.198997 0.437944
vt 0.194093 0.437807
vt 0.164316 0.338544
vt 0.166311 0.326985
vt 0.192514 0.361043
vt 0.189935 0.376086
vt 0.229158 0.437807
vt 0.224254 0.437944
vt 0.206383 0.277953
vt 0.203901 0.293105
vt 0.176335 0.267177
vt 0.178233 0.255509
vt 0.553862 0.550011
vt 0.521983 0.550011
vt 0.525171 0.519579
vt 0.557049 0.507760
vt 0.232002 0.315495
vt 0.256989 0.357156
vt 0.557049 0.592261
vt 0.525171 0.580442
vt 0.246965 0.416964
vt 0.218085 0.398531
vt 0.457224 0.528679
vt 0.502760 0.573903
vt 0.499370 0.596735
vt 0.453835 0.551510
vt 0.591699 0.450344
vt 0.546073 0.405845
vt 0.547268 0.397832
vt 0.593062 0.441185
vt 0.590409 0.459354
vt 0.544951 0.413708
vt 0.571834 0.587671
vt 0.526062 0.544068
vt 0.529320 0.521205
vt 0.575092 0.564808
vt 0.565246 0.633645
vt 0.521026 0.578876
vt 0.581244 0.419112
vt 0.535987 0.370703
vt 0.536381 0.367551
vt 0.582531 0.410315
vt 0.579704 0.428205
vt 0.535339 0.374151
vt 0.494225 0.631295
vt 0.447026 0.597324
vt 0.500438 0.541013
vt 0.503176 0.522267
vt 0.512788 0.347166
vt 0.513094 0.344579
vt 0.512229 0.350050
vt 0.522138 0.619347
vt 0.519373 0.637890
vt 0.525528 0.596515
vt 0.523260 0.383595
vt 0.524372 0.376156
vt 0.522221 0.390885
vt 0.506434 0.499404
vt 0.479849 0.503150
vt 0.544520 0.644485
vt 0.490011 0.348538
vt 0.483840 0.345149
vt 0.489367 0.352948
s 1
usemtl none
f 1/1/1 2/2/1 3/3/1 4/4/1
f 5/5/2 6/6/2 7/7/3 8/8/3
f 9/9/4 10/10/4 11/11/4 12/12/4
f 4/13/5 13/14/5 14/15/5 1/16/5
f 15/17/6 16/18/7 17/19/8 18/20/7
f 19/21/9 20/22/9 21/23/9 22/24/9
f 1/16/10 14/15/10 23/25/10 24/26/10
f 8/8/3 7/7/3 25/27/11 26/28/12
f 27/29/4 28/30/4 10/10/4 9/9/4
f 24/31/13 29/32/14 2/2/13 1/1/13
f 24/26/15 23/25/15 20/33/15 19/34/15
f 26/28/16 25/27/16 30/35/16 31/36/16
f 32/37/17 33/38/17 28/30/17 27/29/17
f 19/39/18 22/40/18 29/32/18 24/31/18
f 22/24/19 21/23/19 33/41/19 32/42/19
f 34/43/20 30/35/20 25/27/21 35/44/21
f 35/44/22 25/27/22 7/7/23 36/45/23
f 36/45/23 7/7/23 6/6/24 37/46/24
f 38/47/25 39/48/25 16/49/25 15/50/25
f 12/51/26 3/3/26 2/2/27 9/52/28
f 9/52/28 2/2/27 29/32/29 27/53/29
f 27/53/30 29/32/30 22/40/30 32/54/30
f 35/55/31 28/30/31 33/38/31 34/56/31
f 34/57/19 33/41/19 21/23/19 30/58/19
f 30/58/9 21/23/9 20/22/9 31/59/9
f 31/60/15 20/33/15 23/25/15 26/61/15
f 26/61/32 23/25/32 14/15/32 8/62/32
f 8/62/33 14/15/33 13/14/33 5/63/33
f 40/64/34 17/19/34 16/18/34 41/65/34
f 41/66/35 16/67/36 39/68/36 42/69/35
f 37/70/37 11/11/37 10/10/37 36/71/37
f 36/71/37 10/10/37 28/30/37 35/55/37
f 11/72/38 43/73/38 44/74/38 12/75/38
f 12/76/39 44/77/40 45/78/40 3/79/39
f 37/80/41 46/81/42 43/73/42 11/72/41
f 6/82/43 47/83/43 46/84/43 37/85/43
f 13/86/44 48/87/44 49/88/45 5/89/45
f 5/90/46 49/91/46 47/83/46 6/82/46
f 4/92/47 50/93/47 48/87/44 13/86/44
f 3/79/48 45/78/48 50/94/48 4/95/48
f 44/96/49 51/97/49 52/98/49 45/99/49
f 43/100/50 53/101/50 51/102/51 44/103/50
f 46/104/52 54/105/53 53/101/53 43/100/52
f 47/106/54 55/107/54 54/108/54 46/109/54
f 49/110/55 56/111/55 55/107/56 47/106/55
f 48/112/57 57/113/57 56/114/57 49/115/57
f 50/116/58 58/117/59 57/113/58 48/112/59
f 45/99/60 52/98/60 58/118/61 50/119/60
f 56/111/62 59/120/63 60/121/64 55/107/62
f 57/113/65 61/122/66 59/123/66 56/114/67
f 58/117/68 62/124/69 61/122/70 57/113/71
f 52/98/72 63/125/72 62/126/72 58/118/72
f 51/97/49 64/127/49 63/125/49 52/98/49
f 53/101/73 65/128/73 64/129/73 51/102/73
f 54/105/74 66/130/75 65/128/76 53/101/74
f 55/107/54 60/121/54 66/131/54 54/108/54
f 41/66/77 60/121/64 59/120/63 40/132/77
f 40/64/78 59/123/66 61/122/66 17/19/79
f 17/19/80 61/122/70 62/124/69 18/20/80
f 18/133/81 62/126/82 63/125/82 15/50/81
f 15/50/83 63/125/83 64/127/83 38/47/83
f 38/134/84 64/129/84 65/128/84 39/135/85
f 39/135/86 65/128/76 66/130/75 42/136/86
f 42/69/87 66/131/87 60/121/87 41/66/87
