# Blender v2.83.0 OBJ File: 'Referencia mano.blend'
# www.blender.org
mtllib Machete.mtl
o mesh
v -0.476302 1.529590 0.333622
v -0.476302 1.520119 0.333622
v -0.476302 1.520119 0.355720
v -0.476302 1.529590 0.355720
v -0.463675 1.529590 0.355720
v -0.463675 1.520119 0.355720
v -0.463675 1.520119 0.333622
v -0.463675 1.529590 0.333622
v -0.476302 1.586413 0.333622
v -0.476302 1.586413 0.358876
v -0.463675 1.586413 0.358876
v -0.463675 1.586413 0.333622
v -0.463675 1.438041 0.336778
v -0.463675 1.434884 0.357298
v -0.476302 1.434884 0.357298
v -0.476302 1.438041 0.336778
v -0.476302 1.529590 0.377817
v -0.476302 1.520119 0.377817
v -0.463675 1.520119 0.377817
v -0.463675 1.529590 0.377817
v -0.463675 1.472766 0.333622
v -0.463675 1.491707 0.333622
v -0.463675 1.491707 0.356509
v -0.463675 1.472766 0.357298
v -0.463675 1.472766 0.380974
v -0.463675 1.491707 0.379396
v -0.476302 1.491707 0.379396
v -0.476302 1.472766 0.380974
v -0.476302 1.472766 0.357298
v -0.476302 1.491707 0.356509
v -0.476302 1.491707 0.333622
v -0.476302 1.472766 0.333622
v -0.463675 1.567472 0.333622
v -0.463675 1.567472 0.358876
v -0.463675 1.558001 0.355719
v -0.463675 1.558001 0.333622
v -0.476302 1.558001 0.333622
v -0.476302 1.567472 0.333622
v -0.476302 1.558001 0.355719
v -0.476302 1.567472 0.358876
v -0.476302 1.567472 0.384131
v -0.476302 1.558001 0.377817
v -0.463675 1.558001 0.377817
v -0.463675 1.567472 0.384131
v -0.463675 1.453825 0.357298
v -0.463675 1.453825 0.333622
v -0.476302 1.453825 0.380974
v -0.463675 1.453825 0.380974
v -0.476302 1.453825 0.333622
v -0.476302 1.453825 0.357298
v -0.476302 1.586413 0.384131
v -0.463675 1.586413 0.384131
v -0.463675 1.548531 0.377817
v -0.476302 1.548531 0.377817
v -0.476302 1.548531 0.333622
v -0.476302 1.548531 0.355719
v -0.463675 1.548531 0.333622
v -0.463675 1.548531 0.355719
v -0.476302 1.444355 0.380974
v -0.463675 1.444355 0.380974
v -0.476302 1.444355 0.333622
v -0.476302 1.444355 0.357298
v -0.463675 1.444355 0.333622
v -0.463675 1.444355 0.357298
v -0.463675 1.434884 0.369136
v -0.476302 1.434884 0.369136
v -0.463675 1.453825 0.369136
v -0.463675 1.444355 0.369136
v -0.463675 1.491707 0.367952
v -0.463675 1.472766 0.369136
v -0.463675 1.529590 0.366768
v -0.463675 1.520119 0.366768
v -0.463675 1.558001 0.366768
v -0.463675 1.548531 0.366768
v -0.464938 1.565104 0.361047
v -0.464938 1.565104 0.367360
v -0.464938 1.560369 0.364993
v -0.464938 1.560369 0.359468
v -0.463675 1.586413 0.371504
v -0.463675 1.567472 0.371504
v -0.476302 1.586413 0.371504
v -0.476302 1.567472 0.371504
v -0.475040 1.560369 0.359468
v -0.475040 1.560369 0.364993
v -0.475040 1.565104 0.367360
v -0.475040 1.565104 0.361047
v -0.476302 1.548531 0.366768
v -0.476302 1.558001 0.366768
v -0.476302 1.520119 0.366768
v -0.476302 1.529590 0.366768
v -0.476302 1.472766 0.369136
v -0.476302 1.491707 0.367952
v -0.476302 1.444355 0.369136
v -0.476302 1.453825 0.369136
v -0.463675 1.438041 0.377817
v -0.476302 1.438041 0.377817
v -0.464938 1.531957 0.358482
v -0.464938 1.536693 0.358482
v -0.464938 1.536693 0.364006
v -0.464938 1.531957 0.364006
v -0.463675 1.539060 0.333622
v -0.463675 1.539060 0.355719
v -0.476302 1.539060 0.333622
v -0.476302 1.539060 0.355720
v -0.475040 1.531957 0.364006
v -0.475040 1.536693 0.364006
v -0.475040 1.536693 0.358482
v -0.475040 1.531957 0.358482
v -0.476302 1.539060 0.377817
v -0.476302 1.539060 0.366768
v -0.463675 1.539060 0.377817
v -0.463675 1.539060 0.366768
v -0.463675 1.510648 0.355720
v -0.463675 1.510648 0.366768
v -0.463675 1.510648 0.377817
v -0.476302 1.510648 0.377817
v -0.476302 1.510648 0.366768
v -0.476302 1.510648 0.355720
v -0.476302 1.510648 0.333622
v -0.463675 1.510648 0.333622
v -0.463675 1.501178 0.356114
v -0.463675 1.501178 0.367360
v -0.463675 1.501178 0.333622
v -0.476302 1.501178 0.333622
v -0.476302 1.501178 0.356114
v -0.476302 1.501178 0.367360
v -0.476302 1.501178 0.378607
v -0.463675 1.501178 0.378607
v -0.464938 1.508281 0.364130
v -0.464938 1.503546 0.364426
v -0.464938 1.503546 0.358802
v -0.464938 1.508281 0.358605
v -0.475040 1.508281 0.358605
v -0.475040 1.503546 0.358802
v -0.475040 1.503546 0.364426
v -0.475040 1.508281 0.364130
v -0.463675 1.468031 0.366177
v -0.463675 1.468031 0.360257
v -0.463675 1.458561 0.366177
v -0.463675 1.458561 0.360257
v -0.476302 1.458561 0.366177
v -0.476302 1.458561 0.360257
v -0.476302 1.468031 0.366177
v -0.476302 1.468031 0.360257
v -0.473145 1.993645 0.333622
v -0.473145 1.925773 0.333622
v -0.470620 1.925773 0.400547
v -0.470620 1.993645 0.404966
v -0.469357 1.993645 0.404966
v -0.469357 1.925773 0.400547
v -0.466832 1.925773 0.333622
v -0.466832 1.993645 0.333622
v -0.469357 2.140754 0.333622
v -0.470620 2.140754 0.333622
v -0.470620 2.129390 0.358245
v -0.469357 2.129390 0.358245
v -0.470620 1.586413 0.384131
v -0.473145 1.586413 0.333622
v -0.466832 1.586413 0.333622
v -0.468726 1.586413 0.384131
v -0.466832 1.722157 0.333622
v -0.466832 1.790029 0.333622
v -0.469357 1.790029 0.390445
v -0.468726 1.722157 0.386657
v -0.470620 1.790029 0.390445
v -0.470620 1.722157 0.386657
v -0.473145 1.790029 0.333622
v -0.473145 1.722157 0.333622
v -0.466832 2.061517 0.333622
v -0.469357 2.061517 0.398021
v -0.473145 2.061517 0.333622
v -0.470620 2.061517 0.398021
v -0.466832 1.857901 0.333622
v -0.469357 1.857901 0.395496
v -0.470620 1.857901 0.395496
v -0.473145 1.857901 0.333622
vt 0.000000 0.812500
vt 0.000000 0.781250
vt 0.500000 0.781250
vt 0.500000 0.812500
vt 0.500000 0.812500
vt 0.500000 0.781250
vt 1.000000 0.781250
vt 1.000000 0.812500
vt 1.000000 0.000000
vt 1.000000 0.500000
vt 0.000000 0.500000
vt 0.000000 0.000000
vt 0.000000 1.000000
vt 0.000000 0.500000
vt 1.000000 0.500000
vt 1.000000 1.000000
vt 0.000000 0.812500
vt 0.000000 0.781250
vt 1.000000 0.781250
vt 1.000000 0.812500
vt 0.000000 0.812500
vt 0.000000 0.781250
vt 1.000000 0.781250
vt 1.000000 0.812500
vt 1.000000 0.625000
vt 1.000000 0.687500
vt 0.500000 0.687500
vt 0.500000 0.625000
vt 1.000000 0.625000
vt 1.000000 0.687500
vt 0.000000 0.687500
vt 0.000000 0.625000
vt 0.500000 0.625000
vt 0.500000 0.687500
vt 0.000000 0.687500
vt 0.000000 0.625000
vt 1.000000 0.625000
vt 1.000000 0.687500
vt 0.000000 0.687500
vt 0.000000 0.625000
vt 1.000000 0.937500
vt 0.500000 0.937500
vt 0.500000 0.906250
vt 1.000000 0.906250
vt 0.000000 0.937500
vt 0.000000 0.906250
vt 1.000000 0.906250
vt 1.000000 0.937500
vt 0.000000 0.906250
vt 0.500000 0.906250
vt 0.500000 0.937500
vt 0.000000 0.937500
vt 0.000000 0.937500
vt 0.000000 0.906250
vt 1.000000 0.906250
vt 1.000000 0.937500
vt 0.500000 0.562500
vt 1.000000 0.562500
vt 0.000000 0.562500
vt 1.000000 0.562500
vt 0.000000 0.562500
vt 0.500000 0.562500
vt 0.000000 0.562500
vt 1.000000 0.562500
vt 1.000000 1.000000
vt 0.500000 1.000000
vt 0.000000 1.000000
vt 1.000000 1.000000
vt 0.500000 1.000000
vt 0.000000 1.000000
vt 0.000000 1.000000
vt 1.000000 1.000000
vt 1.000000 0.875000
vt 0.000000 0.875000
vt 0.000000 0.875000
vt 0.500000 0.875000
vt 1.000000 0.875000
vt 0.000000 0.875000
vt 0.500000 0.875000
vt 1.000000 0.875000
vt 0.000000 0.531250
vt 1.000000 0.531250
vt 0.000000 0.531250
vt 0.500000 0.531250
vt 0.000000 0.531250
vt 1.000000 0.531250
vt 0.500000 0.531250
vt 1.000000 0.531250
vt 0.000000 0.250000
vt 1.000000 0.250000
vt 0.250000 0.562500
vt 0.250000 0.531250
vt 0.250000 0.687500
vt 0.250000 0.625000
vt 0.250000 0.812500
vt 0.250000 0.781250
vt 0.250000 0.906250
vt 0.250000 0.875000
vt 0.437500 0.937500
vt 0.375000 0.937500
vt 0.398438 0.890625
vt 0.453125 0.890625
vt 0.250000 1.000000
vt 0.250000 0.937500
vt 1.000000 0.750000
vt 0.000000 0.750000
vt 0.750000 0.937500
vt 0.750000 1.000000
vt 0.562500 0.890625
vt 0.617188 0.890625
vt 0.640631 0.937500
vt 0.578125 0.937500
vt 0.750000 0.875000
vt 0.750000 0.906250
vt 0.750000 0.781250
vt 0.750000 0.812500
vt 0.750000 0.625000
vt 0.750000 0.687500
vt 0.750000 0.531250
vt 0.750000 0.562500
vt 1.000000 0.500000
vt 0.000000 0.500000
vt 0.500000 0.500000
vt 0.750000 0.500000
vt 0.000000 0.500000
vt 1.000000 0.500000
vt 0.000000 0.500000
vt 1.000000 0.500000
vt 0.500000 0.500000
vt 0.250000 0.500000
vt 1.000000 0.000000
vt 0.000000 0.000000
vt 0.000000 0.500000
vt 0.000000 0.531250
vt 0.000000 0.562500
vt 0.000000 0.625000
vt 0.000000 0.687500
vt 0.000000 0.812500
vt 0.000000 0.781250
vt 0.000000 0.875000
vt 0.000000 0.906250
vt 0.000000 0.937500
vt 0.000000 1.000000
vt 1.000000 1.000000
vt 1.000000 0.937500
vt 1.000000 0.906250
vt 1.000000 0.875000
vt 1.000000 0.781250
vt 1.000000 0.812500
vt 1.000000 0.625000
vt 1.000000 0.687500
vt 1.000000 0.562500
vt 1.000000 0.531250
vt 1.000000 0.500000
vt 0.367188 0.765625
vt 0.367188 0.812500
vt 0.312500 0.812500
vt 0.312500 0.765625
vt 1.000000 0.843750
vt 0.500000 0.843750
vt 1.000000 0.843750
vt 0.000000 0.843750
vt 0.500000 0.843750
vt 0.000000 0.843750
vt 0.679688 0.765625
vt 0.679688 0.812500
vt 0.625000 0.812500
vt 0.625000 0.765625
vt 1.000000 0.843750
vt 0.750000 0.843750
vt 1.000000 0.843750
vt 0.000000 0.843750
vt 0.250000 0.843750
vt 0.000000 0.843750
vt 0.500000 0.750000
vt 0.250000 0.750000
vt 0.000000 0.750000
vt 1.000000 0.750000
vt 0.000000 0.750000
vt 1.000000 0.750000
vt 0.750000 0.750000
vt 0.500000 0.750000
vt 0.000000 0.750000
vt 1.000000 0.750000
vt 0.000000 0.750000
vt 1.000000 0.750000
vt 0.500000 0.718750
vt 0.250000 0.718750
vt 1.000000 0.718750
vt 1.000000 0.718750
vt 0.000000 0.718750
vt 0.500000 0.718750
vt 0.000000 0.718750
vt 0.750000 0.718750
vt 1.000000 0.718750
vt 1.000000 0.718750
vt 0.000000 0.718750
vt 0.000000 0.718750
vt 0.315431 0.750000
vt 0.312500 0.703125
vt 0.368163 0.703125
vt 0.370119 0.750000
vt 0.625000 0.750000
vt 0.626956 0.703125
vt 0.682619 0.703125
vt 0.679688 0.750000
vt 0.353512 0.914062
vt 0.416012 0.914062
vt 0.437500 0.937500
vt 0.312500 0.937500
vt 0.276201 0.908288
vt 0.276201 0.960696
vt 0.250000 1.000000
vt 0.250000 0.895184
vt 0.384762 0.937500
vt 0.330075 0.937500
vt 0.312500 0.914062
vt 0.421875 0.914062
vt 0.500000 0.922060
vt 0.500000 0.872649
vt 0.527796 0.838679
vt 0.527796 0.937500
vt 0.500000 0.789062
vt 0.500000 0.742188
vt 0.527344 0.718750
vt 0.527344 0.812500
vt 0.339844 0.789062
vt 0.394531 0.789062
vt 0.421875 0.812500
vt 0.312500 0.812500
vt 0.277344 0.742188
vt 0.277344 0.789062
vt 0.250000 0.812500
vt 0.250000 0.718750
vt 0.394531 0.812500
vt 0.339844 0.812500
vt 0.312500 0.789062
vt 0.421875 0.789062
vt 0.212705 0.659963
vt 0.259671 0.659963
vt 0.281433 0.687500
vt 0.187500 0.687494
vt 0.397213 0.750000
vt 0.341550 0.750000
vt 0.312500 0.726562
vt 0.423825 0.726562
vt 0.569223 0.750000
vt 0.522308 0.750000
vt 0.500000 0.722433
vt 0.593831 0.722439
vt 0.338625 0.726562
vt 0.393313 0.726562
vt 0.421875 0.750000
vt 0.312500 0.750000
vt 0.716794 0.937500
vt 0.662106 0.937500
vt 0.625000 0.914062
vt 0.734375 0.914062
vt 0.753008 0.937500
vt 0.700598 0.937500
vt 0.687500 0.911292
vt 0.792316 0.911303
vt 0.583981 0.914062
vt 0.646487 0.914062
vt 0.687500 0.937500
vt 0.562500 0.937500
vt 0.471469 0.909709
vt 0.520879 0.909709
vt 0.536321 0.937500
vt 0.437500 0.937500
vt 0.750000 0.789062
vt 0.750000 0.742188
vt 0.777344 0.718750
vt 0.777344 0.812500
vt 0.652344 0.789062
vt 0.707031 0.789062
vt 0.734375 0.812500
vt 0.625000 0.812500
vt 0.527344 0.742188
vt 0.527344 0.789062
vt 0.500000 0.812500
vt 0.500000 0.718750
vt 0.707031 0.812500
vt 0.652344 0.812500
vt 0.625000 0.789062
vt 0.734375 0.789062
vt 0.527567 0.678476
vt 0.527567 0.725392
vt 0.500000 0.656169
vt 0.707275 0.750000
vt 0.651613 0.750000
vt 0.625000 0.726562
vt 0.736325 0.726562
vt 0.750000 0.790739
vt 0.750000 0.743772
vt 0.777531 0.718567
vt 0.777537 0.812500
vt 0.653562 0.726562
vt 0.708250 0.726562
vt 0.734375 0.750000
vt 0.625000 0.750000
vt 0.341794 0.578125
vt 0.400387 0.578125
vt 0.429688 0.625000
vt 0.312500 0.625000
vt 0.216803 0.546873
vt 0.216803 0.640623
vt 0.187513 0.687500
vt 0.187500 0.500000
vt 0.400394 0.625000
vt 0.341800 0.625000
vt 0.312500 0.578125
vt 0.429688 0.578125
vt 0.500000 0.640627
vt 0.500000 0.546877
vt 0.529291 0.500000
vt 0.529303 0.687500
vt 0.650394 0.625000
vt 0.591800 0.625000
vt 0.562500 0.578125
vt 0.679688 0.578125
vt 0.750000 0.640627
vt 0.750000 0.546877
vt 0.779291 0.500000
vt 0.779303 0.687500
vt 0.591794 0.578125
vt 0.650388 0.578125
vt 0.679688 0.625000
vt 0.562500 0.625000
vt 0.529303 0.546873
vt 0.529303 0.640623
vt 0.500013 0.687500
vt 0.500000 0.500000
vt 0.125000 1.000000
vt 0.000000 1.000000
vt 0.000000 0.906250
vt 0.125000 0.906250
vt 0.000000 0.941406
vt 0.125000 0.941406
vt 0.125003 0.999994
vt 0.000003 1.000000
vt 0.000000 0.906250
vt 0.125000 0.906250
vt 0.125000 1.000000
vt 0.000000 1.000000
vt 0.000000 0.941406
vt 0.125000 0.941400
vt 0.125000 0.999994
vt 0.000000 1.000000
vt 0.000000 0.875000
vt 0.000000 0.812500
vt 1.000000 0.812500
vt 1.000000 0.875000
vt 0.000000 0.875000
vt 0.000000 0.812500
vt 1.000000 0.812500
vt 1.000000 0.875000
vt 0.000000 0.000000
vt 1.000000 0.000000
vt 1.000000 1.000000
vt 0.000000 1.000000
vt 1.000000 0.000000
vt 1.000000 1.000000
vt 0.000000 1.000000
vt 0.000000 0.000000
vt 0.000000 0.875000
vt 0.000000 0.812500
vt 1.000000 0.812500
vt 1.000000 0.875000
vt 0.000000 0.875000
vt 0.000000 0.812500
vt 1.000000 0.812500
vt 1.000000 0.875000
vt 1.000000 0.625000
vt 1.000000 0.687500
vt 0.000000 0.687500
vt 0.000000 0.625000
vt 1.000000 0.625000
vt 1.000000 0.687500
vt 0.000000 0.687500
vt 0.000000 0.625000
vt 1.000000 0.625000
vt 1.000000 0.687500
vt 0.000000 0.687500
vt 0.000000 0.625000
vt 1.000000 0.625000
vt 1.000000 0.687500
vt 0.000000 0.687500
vt 0.000000 0.625000
vt 1.000000 0.500000
vt 0.000000 0.500000
vt 1.000000 0.500000
vt 0.000000 0.500000
vt 1.000000 0.500000
vt 0.000000 0.500000
vt 1.000000 0.500000
vt 0.000000 0.500000
vt 1.000000 0.937500
vt 0.000000 0.937500
vt 1.000000 0.937500
vt 0.000000 0.937500
vt 1.000000 0.937500
vt 0.000000 0.937500
vt 1.000000 0.937500
vt 0.000000 0.937500
vt 1.000000 1.000000
vt 0.000000 1.000000
vt 1.000000 1.000000
vt 0.000000 1.000000
vt 0.000000 1.000000
vt 1.000000 1.000000
vt 1.000000 0.750000
vt 0.000000 0.750000
vt 1.000000 0.750000
vt 0.000000 0.750000
vt 1.000000 0.750000
vt 0.000000 0.750000
vt 1.000000 0.750000
vt 0.000000 0.750000
vn -1.0000 0.0000 0.0000
vn 1.0000 -0.0000 0.0000
vn 0.0000 1.0000 0.0000
vn 0.0000 -0.9884 -0.1521
vn 0.0000 0.0000 -1.0000
vn 0.0000 0.0000 1.0000
vn 0.0000 0.0830 0.9965
vn 0.0000 -0.5547 0.8320
vn 0.0000 -1.0000 0.0000
vn 0.0000 -0.4472 0.8944
vn 0.0000 -0.4472 -0.8944
vn 0.0000 -0.9398 0.3417
vn 0.8824 -0.4706 0.0000
vn 0.9026 0.1925 -0.3851
vn 0.8824 0.4706 0.0000
vn 0.9120 -0.1297 0.3891
vn 0.9095 0.0000 0.4158
vn 0.9095 0.0000 -0.4158
vn 0.8823 0.4706 0.0000
vn 0.9106 -0.0258 -0.4126
vn 0.9107 0.0172 0.4126
vn -0.8823 0.4706 0.0000
vn -0.9026 0.1926 -0.3851
vn -0.8823 -0.4706 0.0000
vn -0.9120 -0.1297 0.3891
vn -0.9095 0.0000 -0.4158
vn -0.9095 0.0000 0.4158
vn -0.8824 0.4706 0.0000
vn -0.9107 0.0172 0.4127
vn -0.9106 -0.0258 -0.4126
vn -0.8824 -0.4706 0.0000
vn -0.9992 0.0026 0.0390
vn -0.9993 -0.0020 0.0366
vn -0.9993 -0.0013 0.0378
vn 0.9992 -0.0015 0.0387
vn 0.9993 -0.0013 0.0378
vn 0.9993 -0.0006 0.0368
vn 0.0000 0.9080 0.4191
vn 0.0000 -0.0650 0.9979
vn 0.0000 -0.0696 0.9976
vn 0.9991 -0.0018 0.0419
vn 0.9990 -0.0019 0.0447
vn 0.0000 -0.0557 0.9984
vn -0.9990 -0.0021 0.0453
vn -0.9990 -0.0006 0.0452
vn -0.9990 -0.0006 0.0450
vn 0.9994 -0.0001 0.0358
vn 0.0000 -0.0186 0.9998
vn -0.9989 -0.0009 0.0476
vn 0.9992 -0.0000 0.0392
vn -0.9992 0.0040 0.0392
vn 0.0000 0.1018 0.9948
vn 0.9990 0.0230 0.0392
vn -0.9987 0.0318 0.0391
vn -0.9987 0.0318 0.0392
vn 0.0000 0.5056 0.8628
vn 0.9990 -0.0035 0.0439
vn 0.9990 -0.0031 0.0441
vn 0.0000 -0.0742 0.9972
vn -0.9990 -0.0002 0.0441
vn -0.9990 0.0003 0.0440
usemtl none
s 1
f 1/1/1 2/2/1 3/3/1 4/4/1
f 5/5/2 6/6/2 7/7/2 8/8/2
f 9/9/3 10/10/3 11/11/3 12/12/3
f 13/13/4 14/14/4 15/15/4 16/16/4
f 8/17/5 7/18/5 2/19/5 1/20/5
f 17/21/6 18/22/6 19/23/6 20/24/6
f 21/25/2 22/26/2 23/27/2 24/28/2
f 25/29/7 26/30/7 27/31/7 28/32/7
f 29/33/1 30/34/1 31/35/1 32/36/1
f 32/37/5 31/38/5 22/39/5 21/40/5
f 33/41/2 34/42/2 35/43/2 36/44/2
f 33/45/5 36/46/5 37/47/5 38/48/5
f 37/49/1 39/50/1 40/51/1 38/52/1
f 41/53/8 42/54/8 43/55/8 44/56/8
f 21/25/2 24/28/2 45/57/2 46/58/2
f 28/32/6 47/59/6 48/60/6 25/29/6
f 49/61/1 50/62/1 29/33/1 32/36/1
f 21/40/5 46/63/5 49/64/5 32/37/5
f 12/65/2 11/66/2 34/42/2 33/41/2
f 12/67/5 33/45/5 38/48/5 9/68/5
f 38/52/1 40/51/1 10/69/1 9/70/1
f 51/71/6 41/53/6 44/56/6 52/72/6
f 53/73/6 43/55/6 42/54/6 54/74/6
f 55/75/1 56/76/1 39/50/1 37/49/1
f 55/77/5 37/47/5 36/46/5 57/78/5
f 36/44/2 35/43/2 58/79/2 57/80/2
f 47/59/6 59/81/6 60/82/6 48/60/6
f 49/61/1 61/83/1 62/84/1 50/62/1
f 46/63/5 63/85/5 61/86/5 49/64/5
f 45/57/2 64/87/2 63/88/2 46/58/2
f 14/14/9 65/89/9 66/90/9 15/15/9
f 45/57/2 67/91/2 68/92/2 64/87/2
f 24/28/2 23/27/2 69/93/2 70/94/2
f 71/95/2 72/96/2 6/6/2 5/5/2
f 35/43/2 73/97/2 74/98/2 58/79/2
f 75/99/2 76/100/2 77/101/2 78/102/2
f 11/66/2 79/103/2 80/104/2 34/42/2
f 10/10/3 81/105/3 79/106/3 11/11/3
f 40/51/1 82/107/1 81/108/1 10/69/1
f 83/109/1 84/110/1 85/111/1 86/112/1
f 56/76/1 87/113/1 88/114/1 39/50/1
f 4/4/1 3/3/1 89/115/1 90/116/1
f 91/117/1 92/118/1 30/34/1 29/33/1
f 62/84/1 93/119/1 94/120/1 50/62/1
f 95/121/10 60/82/10 59/81/10 96/122/10
f 15/123/1 66/124/1 93/119/1 62/84/1
f 15/123/1 62/84/1 61/83/1 16/125/1
f 16/126/11 61/86/11 63/85/11 13/127/11
f 13/128/2 63/88/2 64/87/2 14/129/2
f 64/87/2 68/92/2 65/130/2 14/129/2
f 96/131/12 66/90/12 65/89/12 95/132/12
f 95/133/2 65/130/2 68/92/2 60/134/2
f 60/134/2 68/92/2 67/91/2 48/135/2
f 48/135/2 67/91/2 70/94/2 25/136/2
f 70/94/2 69/93/2 26/137/2 25/136/2
f 20/138/2 19/139/2 72/96/2 71/95/2
f 53/140/2 74/98/2 73/97/2 43/141/2
f 43/141/2 73/97/2 80/104/2 44/142/2
f 44/142/2 80/104/2 79/103/2 52/143/2
f 52/143/3 79/106/3 81/105/3 51/144/3
f 51/144/1 81/108/1 82/107/1 41/145/1
f 41/145/1 82/107/1 88/114/1 42/146/1
f 42/146/1 88/114/1 87/113/1 54/147/1
f 90/116/1 89/115/1 18/148/1 17/149/1
f 28/150/1 27/151/1 92/118/1 91/117/1
f 28/150/1 91/117/1 94/120/1 47/152/1
f 47/152/1 94/120/1 93/119/1 59/153/1
f 59/153/1 93/119/1 66/124/1 96/154/1
f 97/155/2 98/156/2 99/157/2 100/158/2
f 8/8/2 101/159/2 102/160/2 5/5/2
f 1/20/5 103/161/5 101/162/5 8/17/5
f 4/4/1 104/163/1 103/164/1 1/1/1
f 105/165/1 106/166/1 107/167/1 108/168/1
f 17/149/1 109/169/1 110/170/1 90/116/1
f 20/24/6 111/171/6 109/172/6 17/21/6
f 71/95/2 112/173/2 111/174/2 20/138/2
f 74/98/2 112/173/2 102/160/2 58/79/2
f 58/79/2 102/160/2 101/159/2 57/80/2
f 57/78/5 101/162/5 103/161/5 55/77/5
f 55/75/1 103/164/1 104/163/1 56/76/1
f 56/76/1 104/163/1 110/170/1 87/113/1
f 87/113/1 110/170/1 109/169/1 54/147/1
f 54/74/6 109/172/6 111/171/6 53/73/6
f 53/140/2 111/174/2 112/173/2 74/98/2
f 113/175/2 6/6/2 72/96/2 114/176/2
f 114/176/2 72/96/2 19/139/2 115/177/2
f 115/178/6 19/23/6 18/22/6 116/179/6
f 116/180/1 18/148/1 89/115/1 117/181/1
f 117/181/1 89/115/1 3/3/1 118/182/1
f 118/182/1 3/3/1 2/2/1 119/183/1
f 119/184/5 2/19/5 7/18/5 120/185/5
f 120/186/2 7/7/2 6/6/2 113/175/2
f 23/27/2 121/187/2 122/188/2 69/93/2
f 22/26/2 123/189/2 121/187/2 23/27/2
f 31/38/5 124/190/5 123/191/5 22/39/5
f 30/34/1 125/192/1 124/193/1 31/35/1
f 92/118/1 126/194/1 125/192/1 30/34/1
f 27/151/1 127/195/1 126/194/1 92/118/1
f 26/30/7 128/196/7 127/197/7 27/31/7
f 69/93/2 122/188/2 128/198/2 26/137/2
f 129/199/2 130/200/2 131/201/2 132/202/2
f 113/175/2 121/187/2 123/189/2 120/186/2
f 120/185/5 123/191/5 124/190/5 119/184/5
f 119/183/1 124/193/1 125/192/1 118/182/1
f 133/203/1 134/204/1 135/205/1 136/206/1
f 117/181/1 126/194/1 127/195/1 116/180/1
f 116/179/7 127/197/7 128/196/7 115/178/7
f 115/177/2 128/198/2 122/188/2 114/176/2
f 76/207/13 75/208/13 34/209/13 80/210/13
f 77/211/14 76/212/14 80/213/14 73/214/14
f 78/215/15 77/216/15 73/217/15 35/218/15
f 75/219/16 78/220/16 35/221/16 34/222/16
f 98/223/17 97/224/17 5/225/17 102/226/17
f 99/227/13 98/228/13 102/229/13 112/230/13
f 100/231/18 99/232/18 112/233/18 71/234/18
f 97/235/19 100/236/19 71/237/19 5/238/19
f 130/239/20 129/240/20 114/241/20 122/242/20
f 131/243/15 130/244/15 122/245/15 121/246/15
f 132/247/21 131/248/21 121/249/21 113/250/21
f 129/251/13 132/252/13 113/253/13 114/254/13
f 84/255/22 83/256/22 39/257/22 88/258/22
f 85/259/23 84/260/23 88/261/23 82/262/23
f 86/263/24 85/264/24 82/265/24 40/266/24
f 83/267/25 86/268/25 40/269/25 39/270/25
f 106/271/26 105/272/26 90/273/26 110/274/26
f 107/275/24 106/276/24 110/277/24 104/278/24
f 108/279/27 107/280/27 104/281/27 4/282/27
f 105/283/28 108/284/28 4/285/28 90/286/28
f 134/287/29 133/288/29 118/182/29 125/289/29
f 135/290/22 134/291/22 125/292/22 126/293/22
f 136/294/30 135/295/30 126/296/30 117/297/30
f 133/298/31 136/299/31 117/300/31 118/301/31
f 137/302/2 138/303/2 24/304/2 70/305/2
f 139/306/2 137/307/2 70/308/2 67/309/2
f 140/310/2 139/311/2 67/312/2 45/313/2
f 138/314/2 140/315/2 45/316/2 24/317/2
f 141/318/1 142/319/1 50/320/1 94/321/1
f 143/322/1 141/323/1 94/324/1 91/325/1
f 144/326/1 143/327/1 91/328/1 29/329/1
f 142/330/1 144/331/1 29/332/1 50/333/1
f 138/334/6 144/335/6 142/336/6 140/337/6
f 137/338/9 143/339/9 144/340/9 138/341/9
f 139/342/5 141/343/5 143/344/5 137/345/5
f 140/346/3 142/347/3 141/348/3 139/349/3
f 145/350/32 146/351/33 147/352/34 148/353/32
f 149/354/35 150/355/36 151/356/37 152/357/35
f 153/358/38 154/359/38 155/360/38 156/361/38
f 157/362/9 158/363/9 159/364/9 160/365/9
f 152/366/5 151/367/5 146/368/5 145/369/5
f 148/370/39 147/371/40 150/372/40 149/373/39
f 161/374/41 162/375/42 163/376/42 164/377/41
f 164/378/43 163/379/43 165/380/43 166/381/43
f 166/382/44 165/383/45 167/384/46 168/385/44
f 168/386/5 167/387/5 162/388/5 161/389/5
f 159/390/47 161/374/41 164/377/41 160/391/47
f 160/392/48 164/378/48 166/381/48 157/393/48
f 157/394/49 166/382/44 168/385/44 158/395/49
f 158/396/5 168/386/5 161/389/5 159/397/5
f 152/357/35 169/398/50 170/399/50 149/354/35
f 145/369/5 171/400/5 169/401/5 152/366/5
f 148/353/32 172/402/51 171/403/51 145/350/32
f 149/373/52 170/404/52 172/405/52 148/370/52
f 156/361/53 170/399/53 169/398/53 153/406/53
f 153/407/5 169/401/5 171/400/5 154/408/5
f 154/409/54 171/403/55 172/402/55 155/360/55
f 155/410/56 172/405/56 170/404/56 156/411/56
f 173/412/57 151/356/37 150/355/36 174/413/58
f 174/414/59 150/372/40 147/371/40 175/415/59
f 175/416/60 147/352/34 146/351/33 176/417/61
f 176/418/5 146/368/5 151/367/5 173/419/5
f 174/413/58 163/376/42 162/375/42 173/412/57
f 173/419/5 162/388/5 167/387/5 176/418/5
f 176/417/61 167/384/46 165/383/45 175/416/60
f 175/415/59 165/380/59 163/379/59 174/414/59
