# Made in Blockbench 5.1.4
mtllib Pepas.mtl

o Bolsa de Pepas
v 0.125 0.28125 0.00625
v 0.125 0.28125 -0.00625
v 0.125 0 0.00625
v 0.125 0 -0.00625
v -0.125 0.28125 0.00625
v -0.125 0.28125 -0.00625
v -0.125 0 0.00625
v -0.125 0 -0.00625
v 0 0.28125 -0.00625
v 0 0 -0.00625
v 0 0 0.00625
v 0 0.28125 0.00625
v 0 0.125 -0.05
v -0.125 0.125 -0.05
v -0.125 0.125 0.05
v 0 0.125 0.05
v 0.125 0.125 0.05
v 0.125 0.125 -0.05
v 0 0.1875 -0.04375
v -0.125 0.1875 -0.04375
v -0.125 0.1875 0.04375
v 0 0.1875 0.04375
v 0.125 0.1875 0.04375
v 0.125 0.1875 -0.04375
v -0.125 0.0625 -0.05
v 0 0.0625 -0.05
v 0.125 0.0625 -0.05
v 0.125 0.0625 0.05
v 0 0.0625 0.05
v -0.125 0.0625 0.05
v 0 0.20625 -0.0375
v -0.125 0.20625 -0.0375
v -0.125 0.20625 0.0375
v 0 0.20625 0.0375
v 0.125 0.20625 0.0375
v 0.125 0.20625 -0.0375
v -0.125 0.03125 -0.05
v 0 0.03125 -0.05
v 0.125 0.03125 -0.05
v 0.125 0.03125 0.05
v 0 0.03125 0.05
v -0.125 0.03125 0.05
v 0 0.265625 -0.00625
v -0.125 0.265625 -0.00625
v -0.125 0.265625 0.00625
v 0 0.265625 0.00625
v 0.125 0.265625 0.00625
v 0.125 0.265625 -0.00625
v -0.125 0.015625 -0.00625
v 0 0.015625 -0.00625
v 0.125 0.015625 -0.00625
v 0.125 0.015625 0.00625
v 0 0.015625 0.00625
v -0.125 0.015625 0.00625
vt 0 0.9375
vt 0 0.90625
vt 0.125 0.90625
vt 0.125 0.9375
vt 0 0.9375
vt 0 0.90625
vt 0.125 0.90625
vt 0.125 0.9375
vt 0.125 1
vt 0.0625 1
vt 0.0625 0.875
vt 0.125 0.875
vt 0.125 1
vt 0.0625 1
vt 0.0625 0.875
vt 0.125 0.875
vt 0.0625 0.9375
vt 0.0625 0.90625
vt 0.125 0.90625
vt 0.125 0.9375
vt 0 0.9375
vt 0 0.90625
vt 0.0625 0.90625
vt 0.0625 0.9375
vt 0.0625 0.9375
vt 0.0625 0.90625
vt 0.125 0.90625
vt 0.125 0.9375
vt 0 0.875
vt 0.0625 0.875
vt 0.0625 1
vt 0 1
vt 0 0.9375
vt 0 0.90625
vt 0.0625 0.90625
vt 0.0625 0.9375
vt 0 0.875
vt 0.0625 0.875
vt 0.0625 1
vt 0 1
vt 0.125 0.9375
vt 0.125 0.96875
vt 0.0625 0.96875
vt 0.0625 0.9375
vt 0.125 0.9375
vt 0.125 0.96875
vt 0 0.96875
vt 0 0.9375
vt 0.0625 0.9375
vt 0.0625 0.96875
vt 0 0.96875
vt 0 0.9375
vt 0.125 0.9375
vt 0.125 0.96875
vt 0.0625 0.96875
vt 0.0625 0.9375
vt 0.125 0.9375
vt 0.125 0.96875
vt 0 0.96875
vt 0 0.9375
vt 0.0625 0.9375
vt 0.0625 0.96875
vt 0 0.96875
vt 0 0.9375
vt 0.125 0.96875
vt 0.125 0.984375
vt 0.0625 0.984375
vt 0.0625 0.96875
vt 0.125 0.96875
vt 0.125 0.984375
vt 0 0.984375
vt 0 0.96875
vt 0.0625 0.96875
vt 0.0625 0.984375
vt 0 0.984375
vt 0 0.96875
vt 0.125 0.96875
vt 0.125 0.984375
vt 0.0625 0.984375
vt 0.0625 0.96875
vt 0.125 0.96875
vt 0.125 0.984375
vt 0 0.984375
vt 0 0.96875
vt 0.0625 0.96875
vt 0.0625 0.984375
vt 0 0.984375
vt 0 0.96875
vt 0.0625 0.90625
vt 0.0625 0.890625
vt 0.125 0.890625
vt 0.125 0.90625
vt 0 0.90625
vt 0 0.890625
vt 0.0625 0.890625
vt 0.0625 0.90625
vt 0 0.90625
vt 0 0.890625
vt 0.125 0.890625
vt 0.125 0.90625
vt 0.0625 0.90625
vt 0.0625 0.890625
vt 0.125 0.890625
vt 0.125 0.90625
vt 0 0.90625
vt 0 0.890625
vt 0.0625 0.890625
vt 0.0625 0.90625
vt 0 0.90625
vt 0 0.890625
vt 0.125 0.890625
vt 0.125 0.90625
vt 0.125 0.984375
vt 0.125 0.9921875
vt 0.0625 0.9921875
vt 0.0625 0.984375
vt 0.125 0.984375
vt 0.125 0.9921875
vt 0 0.9921875
vt 0 0.984375
vt 0.0625 0.984375
vt 0.0625 0.9921875
vt 0 0.9921875
vt 0 0.984375
vt 0.125 0.984375
vt 0.125 0.9921875
vt 0.0625 0.9921875
vt 0.0625 0.984375
vt 0.125 0.984375
vt 0.125 0.9921875
vt 0 0.9921875
vt 0 0.984375
vt 0.0625 0.984375
vt 0.0625 0.9921875
vt 0 0.9921875
vt 0 0.984375
vt 0.0625 0.890625
vt 0.0625 0.8828125
vt 0.125 0.8828125
vt 0.125 0.890625
vt 0 0.890625
vt 0 0.8828125
vt 0.0625 0.8828125
vt 0.0625 0.890625
vt 0 0.890625
vt 0 0.8828125
vt 0.125 0.8828125
vt 0.125 0.890625
vt 0.0625 0.890625
vt 0.0625 0.8828125
vt 0.125 0.8828125
vt 0.125 0.890625
vt 0 0.890625
vt 0 0.8828125
vt 0.0625 0.8828125
vt 0.0625 0.890625
vt 0 0.890625
vt 0 0.8828125
vt 0.125 0.8828125
vt 0.125 0.890625
vt 0.0625 1
vt 0.0625 0.9921875
vt 0.125 0.9921875
vt 0.125 1
vt 0 1
vt 0 0.9921875
vt 0.125 0.9921875
vt 0.125 1
vt 0 1
vt 0 0.9921875
vt 0.0625 0.9921875
vt 0.0625 1
vt 0.0625 1
vt 0.0625 0.9921875
vt 0.125 0.9921875
vt 0.125 1
vt 0 1
vt 0 0.9921875
vt 0.125 0.9921875
vt 0.125 1
vt 0 1
vt 0 0.9921875
vt 0.0625 0.9921875
vt 0.0625 1
vt 0.125 0.875
vt 0.125 0.8828125
vt 0.0625 0.8828125
vt 0.0625 0.875
vt 0.0625 0.875
vt 0.0625 0.8828125
vt 0 0.8828125
vt 0 0.875
vt 0.125 0.875
vt 0.125 0.8828125
vt 0 0.8828125
vt 0 0.875
vt 0.125 0.875
vt 0.125 0.8828125
vt 0.0625 0.8828125
vt 0.0625 0.875
vt 0.0625 0.875
vt 0.0625 0.8828125
vt 0 0.8828125
vt 0 0.875
vt 0.125 0.875
vt 0.125 0.8828125
vt 0 0.8828125
vt 0 0.875
vn 1 0 0
vn -1 0 0
vn 0 1 0
vn 0 -1 0
vn 0 0 1
vn 0 0 -1
vn 0 0 -1
vn 0 -1 0
vn 0 0 1
vn 0 1 0
vn 0 0.09950371902099901 -0.9950371902099893
vn -1 0 0
vn 0 0.09950371902099901 0.9950371902099893
vn 0 0.09950371902099901 0.9950371902099893
vn 1 0 0
vn 0 0.09950371902099901 -0.9950371902099893
vn 0 0.316227766016838 -0.9486832980505138
vn -1 0 0
vn 0 0.316227766016838 0.9486832980505138
vn 0 0.316227766016838 0.9486832980505138
vn 1 0 0
vn 0 0.316227766016838 -0.9486832980505138
vn 0 0 -1
vn 0 0 -1
vn 1 0 0
vn 0 0 1
vn 0 0 1
vn -1 0 0
vn 0 0.46574643283262224 -0.8849182223819825
vn -1 0 0
vn 0 0.46574643283262224 0.8849182223819825
vn 0 0.46574643283262224 0.8849182223819825
vn 1 0 0
vn 0 0.46574643283262224 -0.8849182223819825
vn 0 -0.9417419115948376 -0.3363363969981562
vn 0 -0.9417419115948376 -0.3363363969981562
vn 1 0 0
vn 0 -0.9417419115948376 0.3363363969981562
vn 0 -0.9417419115948376 0.3363363969981562
vn -1 0 0
vn 0 0 -1
vn -1 0 0
vn 0 0 1
vn 0 0 1
vn 1 0 0
vn 0 0 -1
vn 0 0 -1
vn 0 0 -1
vn 1 0 0
vn 0 0 1
vn 0 0 1
vn -1 0 0
usemtl none
f 17/1/1 28/2/1 27/3/1 18/4/1
f 14/5/2 25/6/2 30/7/2 15/8/2
f 2/9/3 9/10/3 12/11/3 1/12/3
f 3/13/4 11/14/4 10/15/4 4/16/4
f 16/17/5 29/18/5 28/19/5 17/20/5
f 18/21/6 27/22/6 26/23/6 13/24/6
f 13/25/7 26/26/7 25/27/7 14/28/7
f 8/29/8 10/30/8 11/31/8 7/32/8
f 15/33/9 30/34/9 29/35/9 16/36/9
f 5/37/10 12/38/10 9/39/10 6/40/10
f 14/41/11 20/42/11 19/43/11 13/44/11
f 15/45/12 21/46/12 20/47/12 14/48/12
f 16/49/13 22/50/13 21/51/13 15/52/13
f 17/53/14 23/54/14 22/55/14 16/56/14
f 18/57/15 24/58/15 23/59/15 17/60/15
f 13/61/16 19/62/16 24/63/16 18/64/16
f 20/65/17 32/66/17 31/67/17 19/68/17
f 21/69/18 33/70/18 32/71/18 20/72/18
f 22/73/19 34/74/19 33/75/19 21/76/19
f 23/77/20 35/78/20 34/79/20 22/80/20
f 24/81/21 36/82/21 35/83/21 23/84/21
f 19/85/22 31/86/22 36/87/22 24/88/22
f 26/89/23 38/90/23 37/91/23 25/92/23
f 27/93/24 39/94/24 38/95/24 26/96/24
f 28/97/25 40/98/25 39/99/25 27/100/25
f 29/101/26 41/102/26 40/103/26 28/104/26
f 30/105/27 42/106/27 41/107/27 29/108/27
f 25/109/28 37/110/28 42/111/28 30/112/28
f 32/113/29 44/114/29 43/115/29 31/116/29
f 33/117/30 45/118/30 44/119/30 32/120/30
f 34/121/31 46/122/31 45/123/31 33/124/31
f 35/125/32 47/126/32 46/127/32 34/128/32
f 36/129/33 48/130/33 47/131/33 35/132/33
f 31/133/34 43/134/34 48/135/34 36/136/34
f 38/137/35 50/138/35 49/139/35 37/140/35
f 39/141/36 51/142/36 50/143/36 38/144/36
f 40/145/37 52/146/37 51/147/37 39/148/37
f 41/149/38 53/150/38 52/151/38 40/152/38
f 42/153/39 54/154/39 53/155/39 41/156/39
f 37/157/40 49/158/40 54/159/40 42/160/40
f 9/161/41 43/162/41 44/163/41 6/164/41
f 6/165/42 44/166/42 45/167/42 5/168/42
f 5/169/43 45/170/43 46/171/43 12/172/43
f 12/173/44 46/174/44 47/175/44 1/176/44
f 1/177/45 47/178/45 48/179/45 2/180/45
f 2/181/46 48/182/46 43/183/46 9/184/46
f 8/185/47 49/186/47 50/187/47 10/188/47
f 10/189/48 50/190/48 51/191/48 4/192/48
f 4/193/49 51/194/49 52/195/49 3/196/49
f 3/197/50 52/198/50 53/199/50 11/200/50
f 11/201/51 53/202/51 54/203/51 7/204/51
f 7/205/52 54/206/52 49/207/52 8/208/52