# Made in Blockbench 5.1.4
mtllib Lata.mtl

o cylinder
v 0.020710625 0 0.05
v 0.020710625 0.125 0.05
v 0.05 0 0.020710625
v 0.05 0.125 0.020710625
v 0.05 0 -0.020710625
v 0.05 0.125 -0.020710625
v 0.020710625 0 -0.05
v 0.020710625 0.125 -0.05
v -0.020710625 0 -0.05
v -0.020710625 0.125 -0.05
v -0.05 0 -0.020710625
v -0.05 0.125 -0.020710625
v -0.05 0 0.020710625
v -0.05 0.125 0.020710625
v -0.020710625 0 0.05
v -0.020710625 0.125 0.05
v 0.04375 0.11875 -0.018121875
v 0.018121875 0.11875 -0.04375
v 0 0.11875 0
v -0.018121875 0.11875 -0.04375
v -0.04375 0.11875 -0.018121875
v -0.04375 0.11875 0.018121875
v -0.018121875 0.11875 0.04375
v 0.018121875 0.11875 0.04375
v 0.04375 0.11875 0.018121875
v -0.018121875 0.006249999999999999 -0.04375
v 0.018121875 0.006249999999999999 -0.04375
v 0 0.006249999999999999 0
v -0.04375 0.006249999999999999 -0.018121875
v -0.04375 0.006249999999999999 0.018121875
v -0.018121875 0.006249999999999999 0.04375
v 0.018121875 0.006249999999999999 0.04375
v 0.04375 0.006249999999999999 0.018121875
v 0.04375 0.006249999999999999 -0.018121875
vt 0.04058875 0.971296875
vt 0.02869875 1
vt 0 0.971296875
vt 0 0.9375
vt 0.0258875 0.9375
vt 0.0258875 1
vt 0 1
vt 0 0.95941125
vt 0.028703125 0.97130125
vt 0 1
vt 0.0375 0.9689375
vt 0.0375 1
vt 0 0.98446875
vt 0 0.9375
vt 0.0258875 0.9375
vt 0.0258875 1
vt 0 1
vt 0.0375 0.9689375
vt 0.0375 1
vt 0 0.98446875
vt 0 0.95941125
vt 0.028703125 0.97130125
vt 0 1
vt 0 0.9375
vt 0.0258875 0.9375
vt 0.0258875 1
vt 0 1
vt 0.04058875 0.971296875
vt 0.02869875 1
vt 0 0.971296875
vt 0 0.9625
vt 0.0310625 0.9625
vt 0.01553125 1
vt 0 0.9375
vt 0.0258875 0.9375
vt 0.0258875 1
vt 0 1
vt 0.0310625 1
vt 0 1
vt 0.01553125 0.9625
vt 0 1
vt 0.011890625 0.971296875
vt 0.04058875 1
vt 0 0.9375
vt 0.0258875 0.9375
vt 0.0258875 1
vt 0 1
vt 0.028703125 1
vt 0 0.988109375
vt 0.028703125 0.95941125
vt 0 1
vt 0 0.9689375
vt 0.0375 0.98446875
vt 0 0.9375
vt 0.0258875 0.9375
vt 0.0258875 1
vt 0 1
vt 0 1
vt 0 0.9689375
vt 0.0375 0.98446875
vt 0.028703125 1
vt 0 0.988109375
vt 0.028703125 0.95941125
vt 0 0.9375
vt 0.0258875 0.9375
vt 0.0258875 1
vt 0 1
vt 0 1
vt 0.011890625 0.971296875
vt 0.04058875 1
vt 0.0310625 1
vt 0 1
vt 0.01553125 0.9625
vt 0 0.9375
vt 0.0258875 0.9375
vt 0.0258875 1
vt 0 1
vt 0 0.9625
vt 0.0310625 0.9625
vt 0.01553125 1
vt 0.0625 0.994825
vt 0.0625 0.96375625
vt 0.0750025 0.95858125
vt 0.0750025 1
vt 0.00518125 0.9875
vt 0.03624375 0.9875
vt 0.041425 1
vt 0 1
vt 0.005175 0.9874975
vt 0.03624375 0.9874975
vt 0.04141875 1
vt 0 1
vt 0.0125 0.96375625
vt 0.0125 0.99481875
vt 0 1
vt 0 0.958575
vt 0.0125025 0.96375625
vt 0.0125025 0.994825
vt 0 1
vt 0 0.95858125
vt 0.03624375 0.9375
vt 0.00518125 0.9375
vt 0 0.925
vt 0.041425 0.925
vt 0.03624375 0.9375
vt 0.005175 0.9375
vt 0 0.9249975
vt 0.04141875 0.9249975
vt 0.0625 0.99481875
vt 0.0625 0.96375625
vt 0.075 0.958575
vt 0.075 1
vt 0.03624375 0.9375
vt 0.00518125 0.9375
vt 0 0.925
vt 0.041425 0.925
vt 0.0125025 0.96375625
vt 0.0125025 0.994825
vt 0 1
vt 0 0.95858125
vt 0.0125 0.96375625
vt 0.0125 0.99481875
vt 0 1
vt 0 0.958575
vt 0.005175 0.9874975
vt 0.03624375 0.9874975
vt 0.04141875 1
vt 0 1
vt 0.00518125 0.9875
vt 0.03624375 0.9875
vt 0.041425 1
vt 0 1
vt 0.0625 0.994825
vt 0.0625 0.96375625
vt 0.0750025 0.95858125
vt 0.0750025 1
vt 0.03624375 0.9375
vt 0.005175 0.9375
vt 0 0.9249975
vt 0.04141875 0.9249975
vt 0.0625 0.99481875
vt 0.0625 0.96375625
vt 0.075 0.958575
vt 0.075 1
vn 0 -1 0
vn 0.7071067811865476 0 0.7071067811865476
vn 0 1 0
vn 0 -1 0
vn 1 0 0
vn 0 1 0
vn 0 -1 0
vn 0.7071067811865476 0 -0.7071067811865476
vn 0 1 0
vn 0 -1 0
vn 0 0 -1
vn 0 1 0
vn 0 -1 0
vn -0.7071067811865476 0 -0.7071067811865476
vn 0 1 0
vn 0 -1 0
vn -1 0 0
vn 0 1 0
vn 0 -1 0
vn -0.7071067811865476 0 0.7071067811865476
vn 0 1 0
vn 0 -1 0
vn 0 0 1
vn 0 1 0
vn -0.5000023975172441 0.7071033905688868 0.5000023975172441
vn 0 0.7071067811865476 0.7071067811865476
vn 0.5000023975172441 0.7071033905688868 0.5000023975172441
vn 0.7071067811865476 0.7071067811865476 0
vn 0.5000023975172441 0.7071033905688868 -0.5000023975172441
vn 0 0.7071067811865476 -0.7071067811865476
vn -0.5000023975172441 0.7071033905688868 -0.5000023975172441
vn -0.7071067811865476 0.7071067811865476 0
vn 0 -0.7071067811865479 0.7071067811865471
vn 0.5000023975172438 -0.7071033905688873 0.5000023975172438
vn 0.7071067811865471 -0.7071067811865479 0
vn 0.5000023975172438 -0.7071033905688873 -0.5000023975172438
vn 0 -0.7071067811865479 -0.7071067811865471
vn -0.5000023975172438 -0.7071033905688873 -0.5000023975172438
vn -0.5000023975172438 -0.7071033905688873 0.5000023975172438
vn -0.7071067811865471 -0.7071067811865479 0
usemtl none
f 33/1/1 32/2/1 28/3/1
f 1/4/2 3/5/2 4/6/2 2/7/2
f 24/8/3 25/9/3 19/10/3
f 34/11/4 33/12/4 28/13/4
f 3/14/5 5/15/5 6/16/5 4/17/5
f 25/18/6 17/19/6 19/20/6
f 27/21/7 34/22/7 28/23/7
f 5/24/8 7/25/8 8/26/8 6/27/8
f 17/28/9 18/29/9 19/30/9
f 26/31/10 27/32/10 28/33/10
f 7/34/11 9/35/11 10/36/11 8/37/11
f 18/38/12 20/39/12 19/40/12
f 29/41/13 26/42/13 28/43/13
f 9/44/14 11/45/14 12/46/14 10/47/14
f 20/48/15 21/49/15 19/50/15
f 30/51/16 29/52/16 28/53/16
f 11/54/17 13/55/17 14/56/17 12/57/17
f 21/58/18 22/59/18 19/60/18
f 31/61/19 30/62/19 28/63/19
f 13/64/20 15/65/20 16/66/20 14/67/20
f 22/68/21 23/69/21 19/70/21
f 32/71/22 31/72/22 28/73/22
f 15/74/23 1/75/23 2/76/23 16/77/23
f 23/78/24 24/79/24 19/80/24
f 18/81/25 17/82/25 6/83/25 8/84/25
f 20/85/26 18/86/26 8/87/26 10/88/26
f 21/89/27 20/90/27 10/91/27 12/92/27
f 22/93/28 21/94/28 12/95/28 14/96/28
f 23/97/29 22/98/29 14/99/29 16/100/29
f 24/101/30 23/102/30 16/103/30 2/104/30
f 25/105/31 24/106/31 2/107/31 4/108/31
f 17/109/32 25/110/32 4/111/32 6/112/32
f 27/113/33 26/114/33 9/115/33 7/116/33
f 26/117/34 29/118/34 11/119/34 9/120/34
f 29/121/35 30/122/35 13/123/35 11/124/35
f 30/125/36 31/126/36 15/127/36 13/128/36
f 31/129/37 32/130/37 1/131/37 15/132/37
f 32/133/38 33/134/38 3/135/38 1/136/38
f 34/137/39 27/138/39 7/139/39 5/140/39
f 33/141/40 34/142/40 5/143/40 3/144/40